<?xml version="1.0" encoding="utf-8"?>
<!-- Generator: Adobe Illustrator 19.0.0, SVG Export Plug-In . SVG Version: 6.00 Build 0)  -->
<svg version="1.1" id="Layer_1" xmlns="http://www.w3.org/2000/svg" xmlns:xlink="http://www.w3.org/1999/xlink" x="0px" y="0px"
	 viewBox="0 0 31.4 31.4" style="enable-background:new 0 0 31.4 31.4;" xml:space="preserve">
<style type="text/css">
	.st0{fill:#00b8d5;}
</style>
<g>
	<g id="XMLID_80_">
		<path id="XMLID_81_" class="st0" d="M0.7,12.6c0.2,0,0.8,0.2,1.8,0.5c-0.1,0.5-0.2,0.9-0.2,1.4c-1.1,0-1.7,0-1.8,0.1
			C0.1,14.8-0.3,17,0.4,17c0.2,0,0.8,0,1.9,0c0,0.3,0.1,0.6,0.1,0.8c-1,0.3-1.7,0.5-1.7,0.5c-0.4,0.3-0.2,2.6,0.5,2.4
			C1.3,20.6,2,20.4,3,20.1c0.1,0.3,0.2,0.6,0.4,1c-0.9,0.5-1.5,0.9-1.5,0.9c-0.3,0.4,0.5,2.6,1.1,2.2c0.1-0.1,0.7-0.4,1.6-0.9
			c0.3,0.4,0.5,0.8,0.8,1.1c-0.7,0.8-1.2,1.3-1.2,1.3C4,26.1,5.3,28,5.8,27.4c0.1-0.1,0.6-0.6,1.3-1.4c0.2,0.2,0.5,0.4,0.7,0.5
			c-0.5,0.9-0.9,1.5-0.9,1.6c0,0.5,1.7,2,2,1.3c0.1-0.1,0.4-0.7,1-1.7c0.3,0.1,0.6,0.3,0.9,0.4c-0.3,1-0.5,1.7-0.4,1.7
			c0.1,0.5,2.1,1.5,2.3,0.8c0-0.2,0.2-0.8,0.5-1.8c0.5,0.1,0.9,0.2,1.4,0.2c0,1.1,0,1.7,0.1,1.8c0.2,0.4,2.5,0.8,2.4,0.1
			c0-0.2,0-0.8,0-1.9c0.3,0,0.7-0.1,1-0.1c0.2,0.9,0.4,1.4,0.4,1.5c0.3,0.9,2.3,0.3,2.2-0.3c0-0.1-0.2-0.7-0.4-1.8
			c0.4-0.1,0.8-0.3,1.1-0.5c0.4,0.8,0.7,1.3,0.8,1.4c0.6,0.8,2.3-0.3,2-0.9c0-0.1-0.4-0.7-0.9-1.6c0.4-0.3,0.9-0.6,1.3-1
			c0.6,0.6,1,1,1.1,1.1c0.8,0.6,2.2-0.9,1.7-1.4c-0.1-0.1-0.5-0.5-1.3-1.3c0.2-0.3,0.4-0.6,0.6-0.8c0.8,0.4,1.3,0.7,1.4,0.8
			c0.9,0.4,1.9-1.4,1.3-1.8c-0.1,0-0.6-0.4-1.5-0.9c0.2-0.4,0.3-0.7,0.5-1.1c0.9,0.2,1.4,0.4,1.5,0.4c1,0.2,1.4-1.8,0.8-2
			c-0.1,0-0.7-0.2-1.7-0.5c0.1-0.5,0.2-1,0.2-1.6c0.9,0,1.5,0,1.6,0c1-0.1,0.9-2.2,0.2-2.2c-0.1,0-0.7,0-1.8,0c0-0.4-0.1-0.7-0.1-1
			c0.9-0.2,1.4-0.4,1.5-0.4c0.9-0.3,0.3-2.3-0.3-2.2c-0.1,0-0.7,0.2-1.8,0.4c-0.1-0.4-0.3-0.8-0.5-1.1c0.8-0.4,1.3-0.7,1.4-0.8
			c0.8-0.6-0.3-2.3-0.9-2c-0.1,0-0.7,0.4-1.6,0.9c-0.3-0.4-0.6-0.9-1-1.3c0.6-0.6,1-1,1.1-1.1c0.6-0.8-0.9-2.2-1.4-1.7
			c-0.1,0.1-0.5,0.5-1.3,1.3c-0.3-0.2-0.6-0.4-0.8-0.6C24,4,24.3,3.5,24.3,3.4c0.4-0.9-1.4-1.9-1.8-1.3c0,0.1-0.4,0.6-0.9,1.5
			c-0.4-0.2-0.7-0.3-1.1-0.5c0.2-0.9,0.4-1.4,0.4-1.5c0.2-1-1.8-1.4-2-0.8c0,0.1-0.2,0.7-0.5,1.7c-0.5-0.1-1-0.2-1.6-0.2
			c0-0.9,0-1.5,0-1.6c-0.1-1-2.2-0.9-2.2-0.2c0,0.1,0,0.7,0,1.8c-0.3,0-0.6,0.1-0.9,0.1c-0.3-1-0.5-1.7-0.5-1.7
			c-0.3-0.4-2.6-0.2-2.4,0.5C10.8,1.3,11,2,11.3,3c-0.3,0.1-0.6,0.2-1,0.4C9.8,2.4,9.5,1.9,9.4,1.8C9,1.6,6.8,2.3,7.3,2.9
			C7.3,3,7.7,3.6,8.2,4.5C7.8,4.8,7.5,5.1,7.1,5.4C6.3,4.6,5.8,4.2,5.8,4.1C5.3,4,3.4,5.3,4,5.8c0.1,0.1,0.6,0.6,1.4,1.3
			C5.2,7.3,5,7.5,4.9,7.8C3.9,7.2,3.3,6.9,3.3,6.9c-0.5,0-2,1.7-1.3,2c0.1,0.1,0.7,0.4,1.7,1c-0.1,0.3-0.3,0.6-0.4,0.9
			c-1-0.3-1.7-0.5-1.7-0.4C1,10.4-0.1,12.5,0.7,12.6z M13.7,15.4H8c0.1-1.6,0.6-3,1.5-4.2L13.7,15.4z M21.9,11.2
			c0.9,1.2,1.4,2.6,1.5,4.2h-5.7L21.9,11.2z M17.7,17h5.6c-0.2,1.4-0.9,2.7-1.8,3.8L17.7,17z M13.7,17L10,20.8
			c-0.9-1-1.6-2.3-1.8-3.8H13.7z M11.2,21.9l3.7-3.7v5.2C13.5,23.2,12.2,22.7,11.2,21.9z M16.5,23.4v-5.2l3.7,3.7
			C19.2,22.7,17.9,23.2,16.5,23.4z M20.8,10l-4.3,4.3V8.1C18.2,8.2,19.6,8.9,20.8,10z M14.9,8.1v6.1L10.6,10
			C11.8,8.9,13.3,8.2,14.9,8.1z"/>
	</g>
</g>
</svg>
