<?xml version="1.0" encoding="utf-8"?>
<!-- Generator: Adobe Illustrator 19.0.0, SVG Export Plug-In . SVG Version: 6.00 Build 0)  -->
<svg version="1.1" id="Layer_1" xmlns="http://www.w3.org/2000/svg" xmlns:xlink="http://www.w3.org/1999/xlink" x="0px" y="0px"
	 viewBox="0 0 1455.8 430.4" style="enable-background:new 0 0 1455.8 430.4;" xml:space="preserve">
<style type="text/css">
	.st0{fill:none;stroke:#00A6B7;stroke-miterlimit:10;}
</style>
<g>
	<g id="XMLID_1543_">
		<g id="XMLID_1759_">
			<path id="XMLID_1760_" class="st0" d="M1002.5,358.8c0.5,0.7,7.4,1.8,17,2.9c1.7,8.3,5.1,15.9,9.7,22.6
				c-6,7.4-10.5,12.9-10.9,13.6c-1.2,2.4,7.2,12,13.2,13.2c0.8,0.2,6.8-4.2,14.6-10.4c6.6,4.3,14.2,7.4,22.3,8.9
				c1,9.8,1.8,17.1,2,17.9c0.9,2.6,13.6,3.4,18.7,0c0.7-0.5,1.8-8,3.1-18.1c8.4-1.7,16.1-5.2,22.9-10c8.4,6.4,14.8,11.1,15.8,11.3
				c3,0.6,13.2-13.2,13.2-13.2s-5.4-6.4-12.7-15.1c4.2-6.6,7.2-14.1,8.7-22.1c10.4-1.4,18.2-2.6,19-3.2c2.6-1.7,0-18.7,0-18.7
				s-8.1-0.7-19.3-1.7c-1.7-8.1-5-15.7-9.6-22.3c6.2-8.1,10.7-14.3,10.9-15.2c0.6-3-13.2-13.2-13.2-13.2s-6.1,5.1-14.4,12
				c-6.8-4.5-14.6-7.7-23-9.2c-1.3-9.8-2.5-17.1-3-17.9c-1.7-2.6-18.7,0-18.7,0s-0.7,7.6-1.6,18.2c-8,1.7-15.4,4.9-21.9,9.3
				c-7.1-5.8-12.4-10.1-13.1-10.4c-2.4-1.2-12,7.2-13.2,13.2c-0.2,0.8,3.9,6.4,9.8,13.8c-4.6,6.9-7.8,14.7-9.4,23.1
				c-9.2,0.9-16,1.7-16.8,1.9C1000,340.9,999.1,353.7,1002.5,358.8z M1079.8,316.8c18,0,32.5,14.6,32.5,32.5
				c0,18-14.6,32.5-32.5,32.5s-32.5-14.6-32.5-32.5C1047.3,331.3,1061.8,316.8,1079.8,316.8z"/>
		</g>
		<g id="XMLID_1755_">
			<path id="XMLID_1756_" class="st0" d="M530.4,204.5c0.5,0.4,5.8-0.3,13-1.6c3,5.6,7.1,10.4,11.9,14.3c-2.8,6.7-4.8,11.6-4.9,12.2
				c-0.4,2,7.8,7.2,12.5,6.7c0.6-0.1,4-4.5,8.3-10.7c5.8,1.7,11.9,2.3,18.1,1.6c2.8,6.9,5,12,5.3,12.5c1.2,1.7,10.6-0.5,13.6-4
				c0.4-0.5-0.4-6.2-1.7-13.8c5.7-3.1,10.5-7.3,14.4-12.2c7.5,2.8,13.1,4.8,13.9,4.8c2.3-0.2,6.7-12.5,6.7-12.5s-5.3-3.5-12.4-8.2
				c1.6-5.7,2.2-11.8,1.5-17.9c7.2-3.3,12.6-5.8,13.1-6.4c1.5-1.8-4-13.6-4-13.6s-6.1,1.2-14.3,2.9c-3-5.5-7-10.3-11.7-14.1
				c2.7-7.2,4.6-12.7,4.6-13.4c-0.2-2.3-12.5-6.7-12.5-6.7s-3.3,5-7.8,11.8c-5.9-1.8-12.3-2.4-18.7-1.7c-3.1-6.8-5.5-11.9-6.1-12.3
				c-1.8-1.5-13.6,4-13.6,4s1.1,5.7,2.8,13.5c-5.4,2.9-10.1,6.8-13.9,11.4c-6.4-2.7-11.2-4.6-11.8-4.7c-2-0.4-7.2,7.8-6.7,12.5
				c0.1,0.6,4.2,3.8,10.1,7.9c-1.9,6-2.5,12.3-1.8,18.8c-6.5,2.7-11.3,4.7-11.8,5C524.6,192.1,526.8,201.5,530.4,204.5z
				 M577.3,157.3c13-3.9,26.7,3.5,30.6,16.5c3.9,13-3.5,26.7-16.5,30.6c-13,3.9-26.7-3.5-30.6-16.5
				C556.8,174.9,564.2,161.2,577.3,157.3z"/>
		</g>
		<g id="XMLID_1751_">
			<path id="XMLID_1752_" class="st0" d="M61.5,149c0.4,0.3,4.3-0.8,9.5-2.4c2.8,3.9,6.3,7.1,10.2,9.5c-1.4,5.2-2.5,9.1-2.5,9.6
				c-0.1,1.5,6.5,4.6,9.9,3.8c0.5-0.1,2.5-3.7,5.2-8.8c4.4,0.7,9.1,0.6,13.6-0.5c2.8,4.9,4.9,8.5,5.2,8.8c1,1.1,7.9-1.4,9.7-4.3
				c0.3-0.4-0.9-4.6-2.6-10.1c3.9-2.8,7.1-6.4,9.5-10.5c5.8,1.4,10.2,2.3,10.8,2.2c1.7-0.4,3.8-9.9,3.8-9.9s-4.3-2.1-10.1-4.9
				c0.7-4.4,0.5-9-0.6-13.5c5.1-3.1,8.8-5.6,9.1-6c0.9-1.5-4.3-9.7-4.3-9.7s-4.4,1.5-10.4,3.6c-2.8-3.8-6.2-7-10.1-9.3
				c1.3-5.7,2.2-9.9,2.1-10.4c-0.4-1.7-9.9-3.8-9.9-3.8s-2,4-4.7,9.6c-4.6-0.8-9.4-0.6-14,0.6c-3-4.8-5.2-8.3-5.7-8.6
				c-1.5-0.9-9.7,4.3-9.7,4.3s1.4,4.1,3.4,9.8c-3.8,2.7-6.9,6.1-9.2,9.9c-5-1.4-8.8-2.4-9.2-2.4c-1.5-0.1-4.6,6.5-3.8,9.9
				c0.1,0.5,3.5,2.4,8.3,4.9c-0.8,4.6-0.7,9.4,0.5,14.2c-4.6,2.6-7.9,4.6-8.3,4.9C56.1,140.3,58.6,147.1,61.5,149z M91.9,109.3
				c9.3-4.1,20.2,0,24.4,9.4c4.1,9.3,0,20.2-9.4,24.4c-9.3,4.1-20.2,0-24.4-9.4C78.4,124.4,82.6,113.5,91.9,109.3z"/>
		</g>
		<g id="XMLID_1746_">
			<path id="XMLID_1748_" class="st0" d="M1011.4,230.8c0.2,0.3,3.7,0.9,8.5,1.5c0.9,4.1,2.5,8,4.9,11.3c-3,3.7-5.3,6.5-5.4,6.8
				c-0.6,1.2,3.6,6,6.6,6.6c0.4,0.1,3.4-2.1,7.3-5.2c3.3,2.2,7.1,3.7,11.2,4.5c0.5,4.9,0.9,8.6,1,9c0.4,1.3,6.8,1.7,9.4,0
				c0.4-0.2,0.9-4,1.5-9.1c4.2-0.9,8.1-2.6,11.5-5c4.2,3.2,7.4,5.6,7.9,5.7c1.5,0.3,6.6-6.6,6.6-6.6s-2.7-3.2-6.4-7.6
				c2.1-3.3,3.6-7.1,4.4-11.1c5.2-0.7,9.1-1.3,9.5-1.6c1.3-0.9,0-9.4,0-9.4s-4.1-0.4-9.7-0.9c-0.9-4.1-2.5-7.9-4.8-11.2
				c3.1-4.1,5.4-7.2,5.4-7.6c0.3-1.5-6.6-6.6-6.6-6.6s-3,2.5-7.2,6c-3.4-2.3-7.3-3.9-11.5-4.6c-0.7-4.9-1.3-8.6-1.5-9
				c-0.9-1.3-9.4,0-9.4,0s-0.3,3.8-0.8,9.1c-4,0.8-7.7,2.4-11,4.7c-3.6-2.9-6.2-5.1-6.6-5.2c-1.2-0.6-6,3.6-6.6,6.6
				c-0.1,0.4,2,3.2,4.9,6.9c-2.3,3.4-3.9,7.4-4.7,11.6c-4.6,0.5-8.1,0.8-8.4,1C1010.1,221.9,1009.7,228.3,1011.4,230.8z
				 M1050.2,201.8c13.4,0,24.2,10.9,24.2,24.2c0,13.4-10.8,24.2-24.2,24.2c-13.4,0-24.2-10.8-24.2-24.2
				C1026,212.7,1036.8,201.8,1050.2,201.8z"/>
			<circle id="XMLID_1747_" class="st0" cx="1050.2" cy="226.1" r="17.2"/>
		</g>
		<g id="XMLID_1741_">
			<path id="XMLID_1743_" class="st0" d="M312.4,318.8c0.4,0.6,6.1,1.4,13.9,2.4c1.4,6.7,4.1,12.9,7.9,18.4
				c-4.9,6-8.5,10.5-8.8,11.1c-1,2,5.9,9.8,10.8,10.8c0.7,0.1,5.5-3.4,11.9-8.4c5.4,3.5,11.5,6,18.1,7.2c0.8,8,1.4,13.9,1.6,14.6
				c0.7,2.1,11.1,2.8,15.3,0c0.6-0.4,1.5-6.5,2.5-14.8c6.8-1.4,13.1-4.2,18.6-8.1c6.8,5.2,12.1,9,12.8,9.2
				c2.5,0.5,10.8-10.8,10.8-10.8s-4.4-5.2-10.3-12.3c3.5-5.4,5.9-11.5,7.1-18c8.5-1.2,14.8-2.1,15.5-2.6c2.1-1.4,0-15.3,0-15.3
				s-6.6-0.6-15.7-1.4c-1.4-6.6-4.1-12.7-7.8-18.1c5-6.6,8.7-11.6,8.8-12.4c0.5-2.5-10.8-10.8-10.8-10.8s-4.9,4.1-11.7,9.8
				c-5.6-3.7-11.9-6.2-18.7-7.5c-1.1-8-2-13.9-2.5-14.6c-1.4-2.1-15.3,0-15.3,0s-0.6,6.2-1.3,14.8c-6.5,1.3-12.5,4-17.9,7.6
				c-5.8-4.7-10.1-8.2-10.7-8.5c-2-1-9.8,5.9-10.8,10.8c-0.1,0.7,3.2,5.2,8,11.3c-3.8,5.6-6.4,12-7.6,18.8
				c-7.5,0.7-13.1,1.3-13.7,1.6C310.4,304.3,309.7,314.7,312.4,318.8z M375.4,271.7c21.7,0,39.3,17.6,39.3,39.3
				s-17.6,39.3-39.3,39.3c-21.7,0-39.3-17.6-39.3-39.3S353.7,271.7,375.4,271.7z"/>
			<circle id="XMLID_1742_" class="st0" cx="375.4" cy="311.1" r="27.9"/>
		</g>
		<g id="XMLID_1736_">
			<path id="XMLID_1738_" class="st0" d="M490.5,58.4c0,0.5,3.2,3.4,7.7,7.2c-1.9,4.8-2.7,9.8-2.5,14.8c-5.5,1.8-9.6,3.1-10.1,3.4
				c-1.4,0.8-0.3,8.6,2.4,11.2c0.4,0.4,4.9,0.1,10.9-0.4c2,4.4,4.8,8.5,8.4,12c-2.8,5.3-4.8,9.3-4.9,9.8c-0.4,1.6,5.8,6.3,9.6,6.2
				c0.5,0,3.6-3.5,7.6-8.3c4.9,1.9,10,2.7,15,2.5c2.2,6.1,3.9,10.6,4.3,11c1.3,1.3,11.2-2.4,11.2-2.4s-0.6-5.1-1.4-11.9
				c4.4-2,8.4-4.8,11.8-8.4c5.8,2.7,10.2,4.7,10.8,4.7c1.9,0,6.2-9.6,6.2-9.6s-3.9-3.1-9.3-7.3c1.8-4.7,2.6-9.7,2.5-14.6
				c5.9-2.1,10.2-3.8,10.6-4.2c1.3-1.3-2.4-11.2-2.4-11.2s-4.8,0.6-11.4,1.4c-2-4.6-4.9-8.8-8.7-12.3c2.6-5.5,4.4-9.6,4.4-10.1
				c0-1.9-9.6-6.2-9.6-6.2s-2.9,3.7-6.9,8.8c-4.6-1.8-9.5-2.6-14.3-2.5c-1.7-5.3-3-9.3-3.2-9.7c-0.8-1.4-8.6-0.3-11.2,2.4
				c-0.3,0.4-0.1,4.6,0.4,10.3c-4.6,2-8.9,4.9-12.5,8.7c-5-2.6-8.8-4.5-9.2-4.6C495.1,48.4,490.4,54.6,490.5,58.4z M549.2,54.5
				c13.6,8.9,17.5,27.1,8.6,40.7c-8.9,13.6-27.1,17.5-40.7,8.6c-13.6-8.9-17.5-27.1-8.6-40.7C517.3,49.5,535.6,45.6,549.2,54.5z"/>
			<circle id="XMLID_1737_" class="st0" cx="533.1" cy="79.2" r="20.9"/>
		</g>
		<g id="XMLID_1731_">
			<path id="XMLID_1733_" class="st0" d="M656.6,176.5c0.3,0.6,5.5,2.2,12.7,4.2c0.3,6.5,2,12.7,4.8,18.4c-5.5,4.9-9.5,8.6-9.9,9.1
				c-1.2,1.7,4.1,10.1,8.6,11.7c0.6,0.2,5.7-2.4,12.4-6.2c4.6,4.1,10,7.3,16,9.4c-0.4,7.6-0.7,13.3-0.6,13.9
				c0.3,2.1,10,4.2,14.3,2.2c0.6-0.3,2.4-5.9,4.5-13.5c6.6-0.3,12.9-2.1,18.6-4.9c5.7,5.9,10,10.2,10.7,10.5
				c2.2,0.8,11.7-8.6,11.7-8.6s-3.3-5.5-7.9-13c4-4.6,7.2-9.9,9.2-15.9c8.1,0.1,14.2,0.1,14.9-0.2c2.2-1,2.2-14.3,2.2-14.3
				s-6.1-1.5-14.5-3.6c-0.3-6.4-2-12.5-4.7-18.1c5.7-5.5,9.8-9.7,10.1-10.4c0.8-2.2-8.6-11.7-8.6-11.7s-5.2,3.1-12.4,7.5
				c-4.7-4.3-10.3-7.6-16.5-9.7c0.1-7.7,0.1-13.4-0.2-14c-1-2.2-14.3-2.2-14.3-2.2s-1.4,5.7-3.4,13.7c-6.3,0.3-12.3,1.9-17.8,4.5
				c-4.8-5.3-8.3-9.2-8.8-9.5c-1.7-1.2-10.1,4.1-11.7,8.6c-0.2,0.6,2.2,5.3,5.8,11.7c-4.3,4.7-7.7,10.3-9.9,16.6
				c-7.2-0.4-12.5-0.6-13.1-0.5C656.8,162.5,654.6,172.2,656.6,176.5z M722.5,141.5c20.4,3.1,34.3,22.2,31.2,42.6
				s-22.2,34.3-42.6,31.2c-20.4-3.1-34.3-22.2-31.2-42.6S702.1,138.3,722.5,141.5z"/>
			<circle id="XMLID_1732_" class="st0" cx="716.8" cy="178.3" r="26.5"/>
		</g>
		<g id="XMLID_1726_">
			<path id="XMLID_1728_" class="st0" d="M1298.3,305c0.3,0.5,5.2,1.2,11.9,2c1.2,5.8,3.6,11.1,6.8,15.8c-4.2,5.2-7.3,9-7.6,9.6
				c-0.8,1.7,5.1,8.4,9.3,9.3c0.6,0.1,4.7-2.9,10.2-7.3c4.7,3,9.9,5.2,15.6,6.2c0.7,6.9,1.2,12,1.4,12.5c0.6,1.8,9.5,2.4,13.1,0
				c0.5-0.3,1.3-5.6,2.1-12.7c5.9-1.2,11.3-3.7,16-7c5.9,4.5,10.4,7.8,11,7.9c2.1,0.4,9.3-9.3,9.3-9.3s-3.8-4.5-8.9-10.6
				c3-4.6,5.1-9.9,6.1-15.5c7.3-1,12.7-1.8,13.3-2.2c1.8-1.2,0-13.1,0-13.1s-5.7-0.5-13.5-1.2c-1.2-5.7-3.5-11-6.7-15.6
				c4.3-5.7,7.5-10,7.6-10.7c0.4-2.1-9.3-9.3-9.3-9.3s-4.3,3.5-10.1,8.4c-4.8-3.2-10.3-5.4-16.1-6.4c-0.9-6.9-1.8-12-2.1-12.5
				c-1.2-1.8-13.1,0-13.1,0s-0.5,5.3-1.1,12.7c-5.6,1.2-10.8,3.4-15.4,6.5c-5-4.1-8.7-7.1-9.2-7.3c-1.7-0.8-8.4,5.1-9.3,9.3
				c-0.1,0.6,2.8,4.5,6.8,9.7c-3.2,4.8-5.5,10.3-6.6,16.2c-6.5,0.6-11.2,1.2-11.8,1.3C1296.5,292.4,1295.9,301.4,1298.3,305z
				 M1352.5,264.5c18.7,0,33.8,15.1,33.8,33.8c0,18.7-15.1,33.8-33.8,33.8s-33.8-15.1-33.8-33.8
				C1318.6,279.6,1333.8,264.5,1352.5,264.5z"/>
			<circle id="XMLID_1727_" class="st0" cx="1352.5" cy="298.3" r="24"/>
		</g>
		<g id="XMLID_1721_">
			<path id="XMLID_1723_" class="st0" d="M1193.9,191c0.4,0.6,6.7,1.5,15.3,2.3c1.7,7.4,4.8,14.2,9.1,20.1
				c-5.3,6.7-9.2,11.8-9.5,12.4c-1,2.2,6.7,10.7,12.1,11.7c0.8,0.1,6-3.9,13-9.6c6,3.8,12.9,6.4,20.1,7.6c1,8.8,1.9,15.3,2.1,16.1
				c0.8,2.3,12.3,2.8,16.8-0.3c0.6-0.4,1.5-7.2,2.4-16.3c7.5-1.7,14.4-5,20.4-9.4c7.7,5.6,13.5,9.7,14.3,9.8
				c2.7,0.5,11.7-12.1,11.7-12.1s-4.9-5.7-11.6-13.4c3.7-6,6.3-12.8,7.4-20c9.3-1.4,16.3-2.7,17-3.2c2.3-1.6-0.3-16.8-0.3-16.8
				s-7.3-0.5-17.3-1.2c-1.7-7.3-4.8-14-9-19.8c5.4-7.4,9.3-13,9.5-13.9c0.5-2.7-12.1-11.7-12.1-11.7s-5.4,4.6-12.7,11.1
				c-6.2-3.9-13.3-6.6-20.8-7.8c-1.4-8.8-2.5-15.3-3-16c-1.6-2.3-16.8,0.3-16.8,0.3s-0.5,6.9-1.1,16.3c-7.1,1.6-13.7,4.6-19.5,8.7
				c-6.5-5.1-11.3-8.8-12-9.2c-2.2-1-10.7,6.7-11.7,12.1c-0.1,0.7,3.6,5.7,9,12.3c-4,6.2-6.8,13.3-8,20.9c-8.3,1-14.4,1.8-15.1,2
				C1191.3,175,1190.8,186.5,1193.9,191z M1262.3,137.8c24-0.5,43.7,18.6,44.2,42.6c0.5,24-18.6,43.7-42.6,44.2
				c-24,0.5-43.7-18.6-44.2-42.6C1219.3,158,1238.4,138.2,1262.3,137.8z"/>
			<circle id="XMLID_1722_" class="st0" cx="1263.1" cy="181.1" r="30.8"/>
		</g>
		<g id="XMLID_1716_">
			<path id="XMLID_1718_" class="st0" d="M148.9,130c0.4,0.4,5.5-0.1,12.3-1c2.7,5.4,6.4,10.1,10.8,13.9c-2.9,6.2-4.9,10.8-5.1,11.4
				c-0.4,1.9,7.2,7,11.6,6.8c0.6,0,3.9-4.1,8.3-9.8c5.4,1.8,11.1,2.6,17,2.2c2.4,6.6,4.3,11.5,4.6,12c1,1.6,10-0.1,13-3.4
				c0.4-0.5-0.2-5.9-1.1-13.1c5.5-2.7,10.2-6.5,14-11c7,2.9,12.2,5,12.9,5c2.2-0.1,6.8-11.6,6.8-11.6s-4.9-3.5-11.5-8.2
				c1.7-5.3,2.5-11.1,2-16.9c7-2.8,12.1-5.1,12.6-5.6c1.5-1.6-3.4-13-3.4-13s-5.8,1-13.6,2.3c-2.6-5.3-6.3-9.9-10.6-13.7
				c2.8-6.8,4.8-11.8,4.8-12.5c-0.1-2.2-11.6-6.8-11.6-6.8s-3.3,4.6-7.8,10.9c-5.5-1.9-11.5-2.7-17.6-2.2
				c-2.7-6.6-4.8-11.4-5.3-11.8c-1.6-1.5-13,3.4-13,3.4s0.9,5.4,2.2,12.9c-5.2,2.6-9.8,6.1-13.5,10.4c-6-2.8-10.4-4.7-11-4.9
				c-1.9-0.4-7,7.2-6.8,11.6c0,0.6,3.9,3.7,9.3,7.8c-2,5.6-2.8,11.6-2.3,17.7c-6.2,2.3-10.8,4-11.3,4.3
				C143.9,118.1,145.6,127.1,148.9,130z M192,76.1c18.5-4.8,37.3,6.3,42.1,24.8c4.8,18.5-6.3,37.3-24.8,42.1
				c-18.5,4.8-37.3-6.3-42.1-24.8C162.4,99.7,173.5,80.9,192,76.1z"/>
			<circle id="XMLID_1717_" class="st0" cx="200.6" cy="109.5" r="24.5"/>
		</g>
		<g id="XMLID_1711_">
			<path id="XMLID_1713_" class="st0" d="M662.7,348.3c0.2,0.3,3.5,0.8,8.1,1.2c0.9,3.9,2.5,7.5,4.8,10.6c-2.8,3.5-4.8,6.2-5,6.5
				c-0.5,1.1,3.5,5.6,6.4,6.1c0.4,0.1,3.2-2,6.8-5c3.2,2,6.8,3.4,10.6,4c0.5,4.6,1,8.1,1.1,8.4c0.4,1.2,6.5,1.5,8.8-0.2
				c0.3-0.2,0.8-3.8,1.3-8.6c3.9-0.9,7.6-2.6,10.7-4.9c4,2.9,7.1,5.1,7.5,5.2c1.4,0.3,6.1-6.4,6.1-6.4s-2.6-3-6.1-7
				c1.9-3.2,3.3-6.7,3.9-10.5c4.9-0.8,8.6-1.4,8.9-1.7c1.2-0.8-0.2-8.8-0.2-8.8s-3.9-0.3-9.1-0.6c-0.9-3.8-2.5-7.3-4.7-10.4
				c2.9-3.9,4.9-6.8,5-7.3c0.3-1.4-6.4-6.1-6.4-6.1s-2.8,2.4-6.7,5.8c-3.3-2.1-7-3.5-10.9-4.1c-0.7-4.6-1.3-8.1-1.6-8.4
				c-0.8-1.2-8.8,0.2-8.8,0.2s-0.3,3.6-0.6,8.6c-3.8,0.9-7.2,2.4-10.3,4.6c-3.4-2.7-5.9-4.6-6.3-4.8c-1.1-0.5-5.6,3.5-6.1,6.4
				c-0.1,0.4,1.9,3,4.7,6.5c-2.1,3.3-3.6,7-4.2,11c-4.4,0.5-7.6,0.9-7.9,1.1C661.3,339.9,661,345.9,662.7,348.3z M698.6,320.3
				c12.6-0.2,23,9.8,23.2,22.4c0.2,12.6-9.8,23-22.4,23.2c-12.6,0.2-23-9.8-23.2-22.4C676,331,686.1,320.5,698.6,320.3z"/>
			<circle id="XMLID_1712_" class="st0" cx="699.1" cy="343.1" r="16.2"/>
		</g>
		<g id="XMLID_1707_">
			<path id="XMLID_1708_" class="st0" d="M907.9,290.3c0.3,0.6,3.4,1,8.2,1.2c0.2,1.9,0.6,3.7,1.1,5.5c-3.9,1.7-6.4,2.7-6.6,2.8
				c-1.5,0.6,1.1,8.4,3,10c0.5,0.4,3.5-0.4,8.1-2.1c0.9,1.5,1.9,3,3,4.4c-3,3-4.9,4.9-5,5.1c-1.2,1.2,4.3,7.4,6.6,8.1
				c0.6,0.2,3.1-1.7,6.7-5c1.5,1.1,3,2.2,4.7,3.1c-1.6,3.9-2.6,6.4-2.7,6.6c-0.6,1.5,6.8,5.2,9.2,5c0.7,0,2.2-2.7,4.3-7.2
				c1.7,0.4,3.5,0.8,5.2,1c0,4.3,0,6.9,0,7.2c0,1.6,8.2,2.2,10.4,1.1c0.6-0.3,1-3.4,1.2-8.2c2.3-0.3,4.5-0.8,6.6-1.4
				c1.5,3.3,2.4,5.4,2.6,5.8c1.1,2.5,10.4-0.8,9.8-3.5c-0.1-0.4-1-2.8-2.6-6.6c1.8-1.1,3.5-2.2,5.1-3.5c2.6,2.5,4.3,4.1,4.6,4.3
				c1.9,1.9,9.3-4.7,7.8-7c-0.2-0.4-2-2.2-4.9-5.1c1.3-1.7,2.5-3.5,3.6-5.5c3.4,1.3,5.5,2.1,5.9,2.2c2.5,1,6.8-7.9,4.5-9.4
				c-0.4-0.2-2.7-1.3-6.4-2.8c0.5-2,0.9-4,1.2-6.1c3.6-0.1,5.9-0.2,6.3-0.2c2.7,0,3.3-9.9,0.5-10.4c-0.4-0.1-3-0.1-7-0.2
				c-0.3-2.2-0.7-4.3-1.3-6.4c3.3-1.5,5.4-2.4,5.8-2.6c2.5-1.1-0.8-10.4-3.5-9.8c-0.4,0.1-2.8,1-6.6,2.6c-1.1-1.8-2.2-3.5-3.5-5.1
				c2.5-2.6,4.1-4.3,4.3-4.6c1.9-1.9-4.7-9.3-7-7.8c-0.4,0.2-2.2,2-5.1,4.9c-1.7-1.3-3.5-2.5-5.5-3.6c1.3-3.4,2.1-5.5,2.2-5.9
				c1-2.5-7.9-6.8-9.4-4.5c-0.2,0.4-1.3,2.7-2.8,6.4c-2-0.5-4-0.9-6.1-1.2c-0.1-3.6-0.2-5.9-0.2-6.3c0-2.7-9.9-3.3-10.4-0.5
				c-0.1,0.4-0.1,3-0.2,7c-1.8,0.2-3.5,0.6-5.2,1.1c-1.7-3.9-2.7-6.4-2.8-6.6c-0.6-1.5-8.4,1.1-10,3c-0.4,0.5,0.4,3.5,2.1,8.1
				c-1.5,0.9-3,1.9-4.4,3c-3-3-4.9-4.9-5.1-5c-1.2-1.2-7.4,4.3-8.1,6.6c-0.2,0.6,1.7,3.1,5,6.7c-1.1,1.5-2.2,3-3.1,4.7
				c-3.9-1.6-6.4-2.6-6.6-2.7c-1.5-0.6-5.2,6.8-5,9.2c0,0.7,2.7,2.2,7.2,4.3c-0.4,1.7-0.8,3.5-1,5.2c-4.3,0-6.9,0-7.2,0
				C907.4,279.9,906.8,288.1,907.9,290.3z M959.6,265c11.5,0,20.8,9.3,20.8,20.8c0,11.5-9.3,20.8-20.8,20.8
				c-11.5,0-20.8-9.3-20.8-20.8C938.8,274.3,948.1,265,959.6,265z"/>
		</g>
		<g id="XMLID_1703_">
			<path id="XMLID_1704_" class="st0" d="M610.9,273.7c0.2,0.4,2.5,0.7,6.2,0.9c0.2,1.4,0.5,2.8,0.8,4.1c-2.9,1.2-4.8,2-4.9,2.1
				c-1.1,0.5,0.9,6.3,2.3,7.5c0.4,0.3,2.6-0.3,6.1-1.5c0.7,1.2,1.4,2.3,2.2,3.3c-2.3,2.3-3.6,3.7-3.8,3.8c-0.9,0.9,3.2,5.5,4.9,6.1
				c0.5,0.2,2.3-1.3,5-3.7c1.1,0.9,2.3,1.6,3.5,2.3c-1.2,3-1.9,4.8-2,5c-0.5,1.1,5.1,3.9,6.9,3.7c0.5,0,1.6-2.1,3.2-5.4
				c1.3,0.3,2.6,0.6,3.9,0.8c0,3.2,0,5.2,0,5.4c0,1.2,6.2,1.6,7.8,0.8c0.4-0.2,0.7-2.5,0.9-6.2c1.7-0.2,3.4-0.6,5-1
				c1.1,2.5,1.8,4,1.9,4.3c0.8,1.9,7.8-0.6,7.4-2.6c-0.1-0.3-0.8-2.1-1.9-4.9c1.3-0.8,2.6-1.7,3.9-2.7c2,1.9,3.2,3,3.4,3.3
				c1.5,1.5,7-3.5,5.8-5.2c-0.2-0.3-1.5-1.7-3.6-3.8c1-1.3,1.9-2.7,2.7-4.1c2.5,1,4.1,1.6,4.4,1.7c1.9,0.8,5.1-5.9,3.4-7.1
				c-0.3-0.2-2-1-4.8-2.1c0.4-1.5,0.7-3,0.9-4.6c2.7-0.1,4.4-0.1,4.7-0.1c2.1,0,2.5-7.4,0.4-7.8c-0.3-0.1-2.2-0.1-5.3-0.1
				c-0.2-1.6-0.6-3.2-1-4.8c2.5-1.1,4-1.8,4.3-1.9c1.9-0.8-0.6-7.8-2.6-7.4c-0.3,0.1-2.1,0.8-4.9,1.9c-0.8-1.3-1.7-2.6-2.7-3.9
				c1.9-2,3-3.2,3.3-3.4c1.5-1.5-3.5-7-5.2-5.8c-0.3,0.2-1.7,1.5-3.8,3.6c-1.3-1-2.7-1.9-4.1-2.7c1-2.5,1.6-4.1,1.7-4.4
				c0.8-1.9-5.9-5.1-7.1-3.4c-0.2,0.3-0.9,2-2.1,4.8c-1.5-0.4-3-0.7-4.6-0.9c-0.1-2.7-0.1-4.4-0.1-4.7c0-2.1-7.4-2.5-7.8-0.4
				c-0.1,0.3-0.1,2.2-0.1,5.3c-1.3,0.2-2.7,0.5-3.9,0.8c-1.2-2.9-2-4.8-2.1-4.9c-0.5-1.1-6.3,0.9-7.5,2.3c-0.3,0.4,0.3,2.6,1.5,6.1
				c-1.2,0.7-2.3,1.4-3.3,2.2c-2.3-2.3-3.7-3.6-3.8-3.8c-0.9-0.9-5.5,3.2-6.1,4.9c-0.2,0.5,1.3,2.3,3.7,5c-0.9,1.1-1.6,2.3-2.3,3.5
				c-3-1.2-4.8-1.9-5-2c-1.1-0.5-3.9,5.1-3.7,6.9c0,0.5,2.1,1.6,5.4,3.2c-0.3,1.3-0.6,2.6-0.8,3.9c-3.2,0-5.2,0-5.4,0
				C610.5,265.9,610.1,272,610.9,273.7z M649.7,254.7c8.6,0,15.6,7,15.6,15.6c0,8.6-7,15.6-15.6,15.6s-15.6-7-15.6-15.6
				C634.1,261.6,641.1,254.7,649.7,254.7z"/>
		</g>
		<g id="XMLID_1699_">
			<path id="XMLID_1700_" class="st0" d="M1.1,232.4c0.3,0.6,3.3,1,8.1,1.2c0.2,1.9,0.6,3.7,1.1,5.4c-3.9,1.6-6.3,2.7-6.5,2.8
				c-1.5,0.6,1.1,8.3,3,9.9c0.5,0.4,3.4-0.4,8-2c0.9,1.5,1.9,3,2.9,4.4c-3,3-4.8,4.8-5,5c-1.1,1.1,4.2,7.3,6.5,8
				c0.6,0.2,3-1.7,6.6-4.9c1.5,1.1,3,2.2,4.6,3.1c-1.6,3.9-2.5,6.3-2.6,6.5c-0.6,1.5,6.7,5.1,9.1,4.9c0.6,0,2.2-2.7,4.2-7.1
				c1.7,0.4,3.4,0.8,5.2,1c0,4.2,0,6.8,0,7.1c0,1.6,8.1,2.2,10.3,1.1c0.6-0.3,1-3.3,1.2-8.1c2.2-0.3,4.4-0.7,6.5-1.4
				c1.5,3.3,2.4,5.3,2.6,5.7c1,2.5,10.2-0.8,9.7-3.5c-0.1-0.4-1-2.8-2.5-6.5c1.8-1.1,3.5-2.2,5.1-3.5c2.6,2.5,4.3,4,4.5,4.3
				c1.9,1.9,9.2-4.6,7.7-6.9c-0.2-0.3-2-2.2-4.8-5c1.3-1.7,2.5-3.5,3.5-5.4c3.3,1.3,5.4,2,5.8,2.2c2.5,1,6.7-7.8,4.4-9.3
				c-0.3-0.2-2.7-1.2-6.4-2.8c0.5-2,0.9-4,1.1-6.1c3.6-0.1,5.8-0.2,6.2-0.2c2.7,0,3.2-9.7,0.5-10.3c-0.4-0.1-2.9-0.1-6.9-0.2
				c-0.3-2.1-0.7-4.3-1.3-6.3c3.3-1.5,5.3-2.4,5.7-2.6c2.5-1-0.8-10.2-3.5-9.7c-0.4,0.1-2.8,1-6.5,2.5c-1.1-1.8-2.2-3.5-3.5-5.1
				c2.5-2.6,4-4.3,4.3-4.5c1.9-1.9-4.6-9.2-6.9-7.7c-0.3,0.2-2.2,2-5,4.8c-1.7-1.3-3.5-2.5-5.4-3.5c1.3-3.3,2-5.4,2.2-5.8
				c1-2.5-7.8-6.7-9.3-4.4c-0.2,0.3-1.2,2.7-2.8,6.4c-2-0.5-4-0.9-6.1-1.1c-0.1-3.6-0.2-5.8-0.2-6.2c0-2.7-9.7-3.2-10.3-0.5
				c-0.1,0.4-0.1,2.9-0.2,6.9c-1.8,0.2-3.5,0.6-5.2,1c-1.6-3.9-2.7-6.3-2.8-6.5c-0.6-1.5-8.3,1.1-9.9,3c-0.4,0.5,0.4,3.4,2,8
				c-1.5,0.9-3,1.9-4.4,2.9c-3-3-4.8-4.8-5-5c-1.1-1.1-7.3,4.2-8,6.5c-0.2,0.6,1.7,3,4.9,6.6c-1.1,1.5-2.2,3-3.1,4.6
				c-3.9-1.6-6.3-2.5-6.5-2.6c-1.5-0.6-5.1,6.7-4.9,9.1c0,0.6,2.7,2.2,7.1,4.2c-0.4,1.7-0.8,3.4-1,5.2c-4.2,0-6.8,0-7.1,0
				C0.5,222.1,0,230.2,1.1,232.4z M52,207.4c11.3,0,20.5,9.2,20.5,20.5c0,11.3-9.2,20.5-20.5,20.5c-11.3,0-20.5-9.2-20.5-20.5
				C31.5,216.6,40.7,207.4,52,207.4z"/>
		</g>
		<g id="XMLID_1695_">
			<path id="XMLID_1696_" class="st0" d="M192.4,274c0.2,0.4,2.5,0.7,6.2,0.9c0.2,1.4,0.5,2.8,0.8,4.1c-2.9,1.2-4.8,2-4.9,2.1
				c-1.1,0.5,0.9,6.3,2.3,7.5c0.4,0.3,2.6-0.3,6.1-1.5c0.7,1.2,1.4,2.3,2.2,3.3c-2.3,2.3-3.6,3.7-3.8,3.8c-0.9,0.9,3.2,5.5,4.9,6.1
				c0.5,0.2,2.3-1.3,5-3.7c1.1,0.9,2.3,1.6,3.5,2.3c-1.2,3-1.9,4.8-2,5c-0.5,1.1,5.1,3.9,6.9,3.7c0.5,0,1.6-2.1,3.2-5.4
				c1.3,0.3,2.6,0.6,3.9,0.8c0,3.2,0,5.2,0,5.4c0,1.2,6.2,1.6,7.8,0.8c0.4-0.2,0.7-2.5,0.9-6.2c1.7-0.2,3.4-0.6,5-1
				c1.1,2.5,1.8,4,1.9,4.3c0.8,1.9,7.8-0.6,7.4-2.6c-0.1-0.3-0.8-2.1-1.9-4.9c1.3-0.8,2.6-1.7,3.9-2.7c2,1.9,3.2,3,3.4,3.3
				c1.5,1.5,7-3.5,5.8-5.2c-0.2-0.3-1.5-1.7-3.6-3.8c1-1.3,1.9-2.7,2.7-4.1c2.5,1,4.1,1.6,4.4,1.7c1.9,0.8,5.1-5.9,3.4-7.1
				c-0.3-0.2-2-1-4.8-2.1c0.4-1.5,0.7-3,0.9-4.6c2.7-0.1,4.4-0.1,4.7-0.1c2.1,0,2.5-7.4,0.4-7.8c-0.3-0.1-2.2-0.1-5.3-0.1
				c-0.2-1.6-0.6-3.2-1-4.8c2.5-1.1,4-1.8,4.3-1.9c1.9-0.8-0.6-7.8-2.6-7.4c-0.3,0.1-2.1,0.8-4.9,1.9c-0.8-1.3-1.7-2.6-2.7-3.9
				c1.9-2,3-3.2,3.3-3.4c1.5-1.5-3.5-7-5.2-5.8c-0.3,0.2-1.7,1.5-3.8,3.6c-1.3-1-2.7-1.9-4.1-2.7c1-2.5,1.6-4.1,1.7-4.4
				c0.8-1.9-5.9-5.1-7.1-3.4c-0.2,0.3-0.9,2-2.1,4.8c-1.5-0.4-3-0.7-4.6-0.9c-0.1-2.7-0.1-4.4-0.1-4.7c0-2.1-7.4-2.5-7.8-0.4
				c-0.1,0.3-0.1,2.2-0.1,5.3c-1.3,0.2-2.7,0.5-3.9,0.8c-1.2-2.9-2-4.8-2.1-4.9c-0.5-1.1-6.3,0.9-7.5,2.3c-0.3,0.4,0.3,2.6,1.5,6.1
				c-1.2,0.7-2.3,1.4-3.3,2.2c-2.3-2.3-3.7-3.6-3.8-3.8c-0.9-0.9-5.5,3.2-6.1,4.9c-0.2,0.5,1.3,2.3,3.7,5c-0.9,1.1-1.6,2.3-2.3,3.5
				c-3-1.2-4.8-1.9-5-2c-1.1-0.5-3.9,5.1-3.7,6.9c0,0.5,2.1,1.6,5.4,3.2c-0.3,1.3-0.6,2.6-0.8,3.9c-3.2,0-5.2,0-5.4,0
				C192,266.2,191.6,272.3,192.4,274z M231.2,255c8.6,0,15.6,7,15.6,15.6c0,8.6-7,15.6-15.6,15.6s-15.6-7-15.6-15.6
				C215.6,262,222.5,255,231.2,255z"/>
		</g>
		<g id="XMLID_1691_">
			<path id="XMLID_1692_" class="st0" d="M1173.5,328.6c0.4,0.7,4,1.2,9.8,1.4c0.3,2.2,0.7,4.4,1.3,6.5c-4.7,2-7.5,3.2-7.8,3.3
				c-1.8,0.8,1.4,10,3.6,11.9c0.6,0.5,4.1-0.5,9.6-2.4c1.1,1.8,2.3,3.6,3.5,5.3c-3.6,3.6-5.8,5.8-6,6c-1.4,1.4,5.1,8.7,7.8,9.7
				c0.7,0.2,3.6-2,7.9-5.9c1.8,1.4,3.6,2.6,5.5,3.7c-1.9,4.7-3.1,7.6-3.2,7.9c-0.7,1.8,8,6.1,11,5.9c0.8-0.1,2.6-3.3,5.1-8.5
				c2,0.5,4.1,0.9,6.2,1.2c0,5.1,0,8.2,0,8.5c0,2,9.8,2.6,12.4,1.3c0.7-0.4,1.2-4,1.4-9.8c2.7-0.4,5.3-0.9,7.9-1.6
				c1.8,3.9,2.9,6.4,3.1,6.8c1.3,3,12.3-0.9,11.7-4.2c-0.1-0.5-1.2-3.3-3-7.8c2.1-1.3,4.2-2.7,6.1-4.2c3.1,3,5.1,4.8,5.4,5.1
				c2.3,2.3,11.1-5.5,9.2-8.3c-0.3-0.4-2.4-2.6-5.8-6.1c1.6-2.1,3-4.2,4.2-6.5c4,1.5,6.6,2.5,7,2.6c3,1.2,8.1-9.4,5.3-11.2
				c-0.4-0.3-3.2-1.5-7.7-3.4c0.6-2.4,1.1-4.8,1.4-7.3c4.3-0.1,7-0.2,7.5-0.2c3.3,0,3.9-11.7,0.7-12.4c-0.5-0.1-3.5-0.2-8.4-0.2
				c-0.4-2.6-0.9-5.1-1.6-7.6c3.9-1.8,6.4-2.9,6.8-3.1c3-1.3-0.9-12.3-4.2-11.7c-0.5,0.1-3.3,1.2-7.8,3c-1.3-2.1-2.7-4.2-4.2-6.1
				c3-3.1,4.8-5.1,5.1-5.4c2.3-2.3-5.5-11.1-8.3-9.2c-0.4,0.3-2.6,2.4-6.1,5.8c-2.1-1.6-4.2-3-6.5-4.2c1.5-4,2.5-6.6,2.6-7
				c1.2-3-9.4-8.1-11.2-5.3c-0.3,0.4-1.5,3.2-3.4,7.7c-2.4-0.6-4.8-1.1-7.3-1.4c-0.1-4.3-0.2-7-0.2-7.5c0-3.3-11.7-3.9-12.4-0.7
				c-0.1,0.5-0.2,3.6-0.2,8.4c-2.1,0.3-4.2,0.7-6.2,1.3c-2-4.7-3.2-7.5-3.3-7.8c-0.8-1.8-10,1.4-11.9,3.6c-0.5,0.6,0.5,4.1,2.4,9.6
				c-1.8,1.1-3.6,2.3-5.3,3.5c-3.6-3.6-5.8-5.8-6-6c-1.4-1.4-8.7,5.1-9.7,7.8c-0.2,0.7,2,3.6,5.9,7.9c-1.4,1.8-2.6,3.6-3.7,5.5
				c-4.7-1.9-7.6-3.1-7.9-3.2c-1.8-0.7-6.1,8-5.9,11c0.1,0.8,3.3,2.6,8.5,5.1c-0.5,2-0.9,4.1-1.2,6.2c-5.1,0-8.2,0-8.5,0
				C1172.9,316.2,1172.2,326,1173.5,328.6z M1234.8,298.5c13.6,0,24.7,11,24.7,24.7c0,13.6-11,24.7-24.7,24.7
				c-13.6,0-24.7-11-24.7-24.7C1210.2,309.5,1221.2,298.5,1234.8,298.5z"/>
		</g>
		<g id="XMLID_1687_">
			<path id="XMLID_1688_" class="st0" d="M266.2,106.4c0.4,0.8,4.7,1.4,11.5,1.7c0.3,2.6,0.9,5.2,1.5,7.7c-5.5,2.3-8.9,3.8-9.2,3.9
				c-2.1,0.9,1.6,11.8,4.2,14c0.7,0.6,4.9-0.5,11.3-2.9c1.3,2.2,2.6,4.2,4.2,6.2c-4.2,4.2-6.8,6.8-7,7.1c-1.6,1.6,6,10.3,9.2,11.4
				c0.9,0.3,4.3-2.4,9.3-6.9c2.1,1.6,4.2,3,6.5,4.4c-2.2,5.5-3.6,8.9-3.7,9.2c-0.9,2.1,9.5,7.2,12.9,6.9c0.9-0.1,3-3.8,5.9-10
				c2.4,0.6,4.8,1.1,7.3,1.5c0,5.9,0,9.6,0,10c0,2.3,11.5,3.1,14.5,1.5c0.8-0.4,1.4-4.7,1.7-11.5c3.2-0.4,6.3-1.1,9.3-1.9
				c2.1,4.6,3.4,7.5,3.6,8c1.5,3.5,14.5-1.1,13.7-4.9c-0.1-0.6-1.4-3.9-3.6-9.2c2.5-1.5,4.9-3.1,7.2-4.9c3.7,3.5,6,5.7,6.4,6
				c2.7,2.7,13-6.5,10.8-9.7c-0.3-0.5-2.8-3.1-6.8-7.1c1.8-2.4,3.5-4.9,5-7.6c4.7,1.8,7.7,2.9,8.2,3.1c3.5,1.5,9.5-11,6.2-13.2
				c-0.5-0.3-3.8-1.8-9-4c0.7-2.8,1.3-5.6,1.6-8.6c5.1-0.2,8.2-0.2,8.8-0.2c3.8,0,4.6-13.8,0.8-14.5c-0.6-0.1-4.2-0.2-9.8-0.2
				c-0.4-3-1-6-1.9-8.9c4.6-2.1,7.5-3.4,8-3.6c3.5-1.5-1.1-14.5-4.9-13.7c-0.6,0.1-3.9,1.4-9.2,3.6c-1.5-2.5-3.1-4.9-4.9-7.2
				c3.5-3.7,5.7-6,6-6.4c2.7-2.7-6.5-13-9.7-10.8c-0.5,0.3-3.1,2.8-7.1,6.8c-2.4-1.8-4.9-3.5-7.6-5c1.8-4.7,2.9-7.7,3.1-8.2
				c1.5-3.5-11-9.5-13.2-6.2c-0.3,0.5-1.8,3.8-4,9c-2.8-0.7-5.6-1.3-8.6-1.6c-0.2-5.1-0.2-8.2-0.2-8.8c0-3.8-13.8-4.6-14.5-0.8
				c-0.1,0.6-0.2,4.2-0.2,9.8c-2.5,0.3-4.9,0.8-7.3,1.5c-2.3-5.5-3.8-8.9-3.9-9.2c-0.9-2.1-11.8,1.6-14,4.2
				c-0.6,0.7,0.5,4.9,2.9,11.3c-2.2,1.3-4.2,2.6-6.2,4.2c-4.2-4.2-6.8-6.8-7.1-7c-1.6-1.6-10.3,6-11.4,9.2c-0.3,0.9,2.4,4.3,6.9,9.3
				c-1.6,2.1-3,4.2-4.4,6.5c-5.5-2.2-8.9-3.6-9.2-3.7c-2.1-0.9-7.2,9.5-6.9,12.9c0.1,0.9,3.8,3,10,5.9c-0.6,2.4-1.1,4.8-1.5,7.3
				c-5.9,0-9.6,0-10,0C265.4,91.9,264.6,103.4,266.2,106.4z M338.2,71.1c16,0,29,13,29,29c0,16-13,29-29,29c-16,0-29-13-29-29
				C309.2,84.1,322.2,71.1,338.2,71.1z"/>
		</g>
		<g id="XMLID_1680_">
			<path id="XMLID_1684_" class="st0" d="M777,131.3c0.3,0.5,3.1,0.9,7.6,1.1c0.2,1.7,0.6,3.4,1,5.1c-3.6,1.5-5.9,2.5-6.1,2.6
				c-1.4,0.6,1.1,7.8,2.8,9.3c0.5,0.4,3.2-0.4,7.4-1.9c0.8,1.4,1.7,2.8,2.7,4.1c-2.8,2.8-4.5,4.5-4.6,4.7c-1.1,1.1,3.9,6.8,6.1,7.5
				c0.6,0.2,2.8-1.6,6.2-4.6c1.4,1,2.8,2,4.3,2.9c-1.5,3.6-2.4,5.9-2.5,6.1c-0.6,1.4,6.3,4.8,8.5,4.6c0.6,0,2-2.5,3.9-6.6
				c1.6,0.4,3.2,0.7,4.8,1c0,3.9,0,6.4,0,6.6c0,1.5,7.6,2,9.6,1c0.5-0.3,0.9-3.1,1.1-7.6c2.1-0.3,4.1-0.7,6.1-1.3
				c1.4,3,2.3,5,2.4,5.3c1,2.3,9.6-0.7,9.1-3.2c-0.1-0.4-0.9-2.6-2.4-6.1c1.7-1,3.3-2.1,4.7-3.3c2.4,2.3,4,3.7,4.2,4
				c1.8,1.8,8.6-4.3,7.2-6.4c-0.2-0.3-1.9-2-4.5-4.7c1.2-1.6,2.3-3.3,3.3-5c3.1,1.2,5.1,1.9,5.4,2c2.3,1,6.3-7.3,4.1-8.7
				c-0.3-0.2-2.5-1.2-5.9-2.6c0.5-1.8,0.9-3.7,1.1-5.7c3.3-0.1,5.5-0.2,5.8-0.2c2.5,0,3-9.1,0.5-9.6c-0.4-0.1-2.8-0.1-6.5-0.2
				c-0.3-2-0.7-4-1.2-5.9c3-1.4,5-2.3,5.3-2.4c2.3-1-0.7-9.6-3.2-9.1c-0.4,0.1-2.6,0.9-6.1,2.4c-1-1.7-2.1-3.3-3.3-4.7
				c2.3-2.4,3.7-4,4-4.2c1.8-1.8-4.3-8.6-6.4-7.2c-0.3,0.2-2,1.9-4.7,4.5c-1.6-1.2-3.3-2.3-5-3.3c1.2-3.1,1.9-5.1,2-5.4
				c1-2.3-7.3-6.3-8.7-4.1c-0.2,0.3-1.2,2.5-2.6,5.9c-1.8-0.5-3.7-0.9-5.7-1.1c-0.1-3.3-0.2-5.5-0.2-5.8c0-2.5-9.1-3-9.6-0.5
				c-0.1,0.4-0.1,2.8-0.2,6.5c-1.6,0.2-3.3,0.6-4.8,1c-1.5-3.6-2.5-5.9-2.6-6.1c-0.6-1.4-7.8,1.1-9.3,2.8c-0.4,0.5,0.4,3.2,1.9,7.4
				c-1.4,0.8-2.8,1.7-4.1,2.7c-2.8-2.8-4.5-4.5-4.7-4.6c-1.1-1.1-6.8,3.9-7.5,6.1c-0.2,0.6,1.6,2.8,4.6,6.2c-1,1.4-2,2.8-2.9,4.3
				c-3.6-1.5-5.9-2.4-6.1-2.5c-1.4-0.6-4.8,6.3-4.6,8.5c0,0.6,2.5,2,6.6,3.9c-0.4,1.6-0.7,3.2-1,4.8c-3.9,0-6.4,0-6.6,0
				C776.5,121.7,776,129.3,777,131.3z M824.6,95.8c17.3,0,31.3,14,31.3,31.3c0,17.3-14,31.3-31.3,31.3c-17.3,0-31.3-14-31.3-31.3
				C793.3,109.8,807.3,95.8,824.6,95.8z"/>
			<path id="XMLID_1681_" class="st0" d="M824.6,146.4c10.7,0,19.3-8.7,19.3-19.3c0-10.7-8.7-19.3-19.3-19.3
				c-10.7,0-19.3,8.7-19.3,19.3C805.3,137.8,813.9,146.4,824.6,146.4z M824.6,114.3c7.1,0,12.8,5.7,12.8,12.8
				c0,7.1-5.7,12.8-12.8,12.8c-7.1,0-12.8-5.7-12.8-12.8C811.8,120.1,817.6,114.3,824.6,114.3z"/>
		</g>
		<g id="XMLID_1673_">
			<path id="XMLID_1677_" class="st0" d="M221.7,192.9c0.2,0.4,2.5,0.7,6.1,0.9c0.2,1.4,0.5,2.7,0.8,4c-2.9,1.2-4.7,2-4.8,2.1
				c-1.1,0.5,0.8,6.2,2.2,7.4c0.4,0.3,2.6-0.3,5.9-1.5c0.7,1.1,1.4,2.2,2.2,3.3c-2.2,2.2-3.6,3.6-3.7,3.7c-0.9,0.9,3.1,5.4,4.8,6
				c0.5,0.2,2.3-1.2,4.9-3.7c1.1,0.8,2.2,1.6,3.4,2.3c-1.2,2.9-1.9,4.7-2,4.9c-0.5,1.1,5,3.8,6.8,3.7c0.5,0,1.6-2,3.1-5.3
				c1.3,0.3,2.5,0.6,3.9,0.8c0,3.1,0,5.1,0,5.3c0,1.2,6,1.6,7.7,0.8c0.4-0.2,0.7-2.5,0.9-6.1c1.7-0.2,3.3-0.6,4.9-1
				c1.1,2.4,1.8,4,1.9,4.2c0.8,1.9,7.6-0.6,7.2-2.6c-0.1-0.3-0.8-2.1-1.9-4.8c1.3-0.8,2.6-1.6,3.8-2.6c1.9,1.8,3.2,3,3.4,3.2
				c1.4,1.4,6.8-3.4,5.7-5.1c-0.2-0.3-1.5-1.6-3.6-3.8c1-1.3,1.9-2.6,2.6-4c2.5,0.9,4.1,1.5,4.3,1.6c1.9,0.8,5-5.8,3.3-6.9
				c-0.3-0.2-2-0.9-4.7-2.1c0.4-1.5,0.7-3,0.8-4.5c2.7-0.1,4.3-0.1,4.6-0.1c2,0,2.4-7.3,0.4-7.7c-0.3-0.1-2.2-0.1-5.2-0.1
				c-0.2-1.6-0.5-3.2-1-4.7c2.4-1.1,4-1.8,4.2-1.9c1.9-0.8-0.6-7.6-2.6-7.2c-0.3,0.1-2.1,0.8-4.8,1.9c-0.8-1.3-1.6-2.6-2.6-3.8
				c1.8-1.9,3-3.2,3.2-3.4c1.4-1.4-3.4-6.8-5.1-5.7c-0.3,0.2-1.6,1.5-3.8,3.6c-1.3-1-2.6-1.9-4-2.6c0.9-2.5,1.5-4.1,1.6-4.3
				c0.8-1.9-5.8-5-6.9-3.3c-0.2,0.3-0.9,2-2.1,4.7c-1.5-0.4-3-0.7-4.5-0.8c-0.1-2.7-0.1-4.3-0.1-4.6c0-2-7.3-2.4-7.7-0.4
				c-0.1,0.3-0.1,2.2-0.1,5.2c-1.3,0.2-2.6,0.4-3.9,0.8c-1.2-2.9-2-4.7-2.1-4.8c-0.5-1.1-6.2,0.8-7.4,2.2c-0.3,0.4,0.3,2.6,1.5,5.9
				c-1.1,0.7-2.2,1.4-3.3,2.2c-2.2-2.2-3.6-3.6-3.7-3.7c-0.9-0.9-5.4,3.1-6,4.8c-0.2,0.5,1.2,2.3,3.7,4.9c-0.8,1.1-1.6,2.2-2.3,3.4
				c-2.9-1.2-4.7-1.9-4.9-2c-1.1-0.5-3.8,5-3.7,6.8c0,0.5,2,1.6,5.3,3.1c-0.3,1.3-0.6,2.5-0.8,3.9c-3.1,0-5.1,0-5.3,0
				C221.3,185.2,220.9,191.3,221.7,192.9z M259.7,164.6c13.8,0,24.9,11.2,24.9,24.9c0,13.8-11.2,24.9-24.9,24.9
				c-13.8,0-24.9-11.2-24.9-24.9C234.7,175.7,245.9,164.6,259.7,164.6z"/>
			<path id="XMLID_1674_" class="st0" d="M259.7,204.9c8.5,0,15.4-6.9,15.4-15.4c0-8.5-6.9-15.4-15.4-15.4
				c-8.5,0-15.4,6.9-15.4,15.4C244.3,198,251.2,204.9,259.7,204.9z M259.7,179.3c5.6,0,10.2,4.6,10.2,10.2c0,5.6-4.6,10.2-10.2,10.2
				c-5.6,0-10.2-4.6-10.2-10.2C249.5,183.9,254.1,179.3,259.7,179.3z"/>
		</g>
		<g id="XMLID_1666_">
			<path id="XMLID_1670_" class="st0" d="M75,333.9c0.3,0.7,4,1.2,9.7,1.4c0.3,2.2,0.7,4.4,1.3,6.5c-4.6,2-7.5,3.2-7.8,3.3
				c-1.8,0.7,1.4,9.9,3.5,11.8c0.6,0.5,4.1-0.5,9.5-2.4c1.1,1.8,2.2,3.6,3.5,5.2c-3.5,3.6-5.7,5.8-5.9,6c-1.4,1.4,5,8.7,7.8,9.6
				c0.7,0.2,3.6-2,7.9-5.8c1.7,1.3,3.6,2.6,5.5,3.7c-1.9,4.6-3,7.5-3.2,7.8c-0.7,1.8,8,6.1,10.9,5.9c0.8-0.1,2.6-3.2,5-8.4
				c2,0.5,4.1,0.9,6.2,1.2c0,5,0,8.1,0,8.4c0,1.9,9.7,2.6,12.3,1.3c0.7-0.3,1.2-4,1.4-9.7c2.7-0.4,5.3-0.9,7.8-1.6
				c1.8,3.9,2.9,6.3,3.1,6.8c1.2,3,12.2-0.9,11.6-4.1c-0.1-0.5-1.2-3.3-3-7.7c2.1-1.3,4.1-2.6,6.1-4.2c3.1,2.9,5.1,4.8,5.4,5.1
				c2.3,2.3,11-5.5,9.1-8.2c-0.3-0.4-2.4-2.6-5.7-6c1.5-2,3-4.2,4.2-6.4c4,1.5,6.5,2.4,6.9,2.6c3,1.2,8-9.3,5.3-11.1
				c-0.4-0.3-3.2-1.5-7.6-3.3c0.6-2.4,1.1-4.8,1.4-7.2c4.3-0.1,7-0.2,7.4-0.2c3.2,0,3.9-11.6,0.6-12.3c-0.5-0.1-3.5-0.2-8.3-0.2
				c-0.4-2.6-0.9-5.1-1.6-7.5c3.9-1.8,6.3-2.9,6.8-3.1c3-1.2-0.9-12.2-4.1-11.6c-0.5,0.1-3.3,1.2-7.7,3c-1.3-2.1-2.6-4.1-4.2-6.1
				c2.9-3.1,4.8-5.1,5.1-5.4c2.3-2.3-5.5-11-8.2-9.1c-0.4,0.3-2.6,2.4-6,5.7c-2-1.5-4.2-3-6.4-4.2c1.5-4,2.4-6.5,2.6-6.9
				c1.2-3-9.3-8-11.1-5.3c-0.3,0.4-1.5,3.2-3.3,7.6c-2.4-0.6-4.8-1.1-7.2-1.4c-0.1-4.3-0.2-7-0.2-7.4c0-3.2-11.6-3.9-12.3-0.6
				c-0.1,0.5-0.2,3.5-0.2,8.3c-2.1,0.3-4.2,0.7-6.2,1.2c-2-4.6-3.2-7.5-3.3-7.8c-0.7-1.8-9.9,1.4-11.8,3.5c-0.5,0.6,0.5,4.1,2.4,9.5
				c-1.8,1.1-3.6,2.2-5.2,3.5c-3.6-3.5-5.8-5.7-6-5.9c-1.4-1.4-8.7,5-9.6,7.8c-0.2,0.7,2,3.6,5.8,7.9c-1.3,1.7-2.6,3.6-3.7,5.5
				c-4.6-1.9-7.5-3-7.8-3.2c-1.8-0.7-6.1,8-5.9,10.9c0.1,0.8,3.2,2.6,8.4,5c-0.5,2-0.9,4.1-1.2,6.2c-5,0-8.1,0-8.4,0
				C74.4,321.6,73.7,331.3,75,333.9z M135.8,288.5c22.1,0,39.9,17.9,39.9,39.9c0,22.1-17.9,39.9-39.9,39.9s-39.9-17.9-39.9-39.9
				C95.8,306.4,113.7,288.5,135.8,288.5z"/>
			<path id="XMLID_1667_" class="st0" d="M135.8,353.1c13.6,0,24.7-11,24.7-24.7c0-13.6-11-24.7-24.7-24.7
				c-13.6,0-24.7,11-24.7,24.7C111.1,342.1,122.1,353.1,135.8,353.1z M135.8,312.2c9,0,16.3,7.3,16.3,16.3c0,9-7.3,16.3-16.3,16.3
				s-16.3-7.3-16.3-16.3C119.5,319.5,126.8,312.2,135.8,312.2z"/>
		</g>
		<g id="XMLID_1659_">
			<path id="XMLID_1663_" class="st0" d="M452.2,326.8c0.4,0.9,5,1.5,12.4,1.8c0.4,2.8,0.9,5.6,1.6,8.2c-5.9,2.5-9.5,4-9.9,4.2
				c-2.3,1,1.7,12.6,4.5,15c0.7,0.6,5.2-0.6,12.1-3.1c1.4,2.3,2.8,4.5,4.5,6.6c-4.5,4.5-7.3,7.4-7.6,7.6c-1.7,1.7,6.4,11,9.9,12.2
				c0.9,0.3,4.6-2.5,10-7.4c2.2,1.7,4.6,3.3,7,4.7c-2.4,5.9-3.9,9.6-4,9.9c-0.9,2.3,10.2,7.7,13.8,7.5c1-0.1,3.3-4.1,6.4-10.7
				c2.6,0.7,5.2,1.2,7.9,1.6c0,6.4,0.1,10.3,0.1,10.7c0,2.5,12.3,3.3,15.6,1.6c0.9-0.4,1.5-5,1.8-12.3c3.4-0.4,6.7-1.1,9.9-2.1
				c2.2,5,3.7,8.1,3.9,8.6c1.6,3.8,15.6-1.2,14.7-5.3c-0.1-0.6-1.5-4.2-3.8-9.8c2.7-1.6,5.3-3.3,7.7-5.3c4,3.7,6.5,6.1,6.9,6.5
				c2.9,2.9,14-7,11.6-10.5c-0.4-0.5-3-3.3-7.3-7.7c2-2.6,3.8-5.3,5.4-8.2c5.1,1.9,8.3,3.1,8.8,3.3c3.8,1.6,10.2-11.8,6.7-14.1
				c-0.5-0.4-4.1-1.9-9.7-4.3c0.8-3,1.4-6.1,1.7-9.2c5.4-0.2,8.9-0.3,9.4-0.3c4.1,0,4.9-14.8,0.8-15.6c-0.6-0.1-4.5-0.2-10.6-0.3
				c-0.5-3.3-1.1-6.5-2-9.6c5-2.2,8.1-3.7,8.6-3.9c3.8-1.6-1.2-15.6-5.3-14.7c-0.6,0.1-4.2,1.5-9.8,3.8c-1.6-2.7-3.3-5.3-5.3-7.7
				c3.7-4,6.1-6.5,6.5-6.9c2.9-2.9-7-14-10.5-11.6c-0.5,0.4-3.3,3-7.7,7.3c-2.6-2-5.3-3.8-8.2-5.4c1.9-5.1,3.1-8.3,3.3-8.8
				c1.6-3.8-11.8-10.2-14.1-6.7c-0.4,0.5-1.9,4.1-4.3,9.7c-3-0.8-6.1-1.4-9.2-1.7c-0.2-5.4-0.3-8.9-0.3-9.4c0-4.1-14.8-4.9-15.6-0.8
				c-0.1,0.6-0.2,4.5-0.3,10.6c-2.7,0.4-5.3,0.9-7.9,1.6c-2.5-5.9-4-9.5-4.2-9.9c-1-2.3-12.6,1.7-15,4.5c-0.6,0.7,0.6,5.2,3.1,12.1
				c-2.3,1.4-4.5,2.8-6.6,4.5c-4.5-4.5-7.4-7.3-7.6-7.6c-1.7-1.7-11,6.4-12.2,9.9c-0.3,0.9,2.5,4.6,7.4,10c-1.7,2.2-3.3,4.6-4.7,7
				c-5.9-2.4-9.6-3.9-9.9-4c-2.3-0.9-7.7,10.2-7.5,13.8c0.1,1,4.1,3.3,10.7,6.4c-0.7,2.6-1.2,5.2-1.6,7.9c-6.4,0-10.3,0.1-10.7,0.1
				C451.4,311.2,450.6,323.5,452.2,326.8z M529.6,269.1c28.1,0,50.9,22.8,50.9,50.9c0,28.1-22.8,50.9-50.9,50.9
				c-28.1,0-50.9-22.8-50.9-50.9C478.7,291.9,501.5,269.1,529.6,269.1z"/>
			<path id="XMLID_1660_" class="st0" d="M529.6,351.4c17.3,0,31.4-14.1,31.4-31.4c0-17.3-14.1-31.4-31.4-31.4s-31.4,14.1-31.4,31.4
				C498.2,337.3,512.2,351.4,529.6,351.4z M529.6,299.2c11.5,0,20.8,9.3,20.8,20.8c0,11.5-9.3,20.8-20.8,20.8
				c-11.5,0-20.8-9.3-20.8-20.8C508.8,308.5,518.1,299.2,529.6,299.2z"/>
		</g>
		<g id="XMLID_1652_">
			<path id="XMLID_1656_" class="st0" d="M1346.6,186.5c0.3,0.6,3.5,1,8.6,1.3c0.3,2,0.6,3.9,1.1,5.8c-4.1,1.7-6.6,2.8-6.9,2.9
				c-1.6,0.7,1.2,8.8,3.1,10.5c0.5,0.5,3.6-0.4,8.4-2.1c0.9,1.6,2,3.2,3.1,4.6c-3.1,3.2-5.1,5.1-5.3,5.3c-1.2,1.2,4.5,7.7,6.9,8.5
				c0.7,0.2,3.2-1.8,7-5.2c1.6,1.2,3.2,2.3,4.9,3.3c-1.7,4.1-2.7,6.7-2.8,6.9c-0.7,1.6,7.1,5.4,9.7,5.2c0.7-0.1,2.3-2.9,4.5-7.5
				c1.8,0.5,3.6,0.8,5.5,1.1c0,4.5,0,7.2,0,7.5c0,1.7,8.6,2.3,10.9,1.1c0.6-0.3,1-3.5,1.3-8.6c2.4-0.3,4.7-0.8,6.9-1.5
				c1.6,3.5,2.6,5.6,2.7,6c1.1,2.6,10.9-0.8,10.3-3.7c-0.1-0.4-1.1-2.9-2.7-6.9c1.9-1.1,3.7-2.3,5.4-3.7c2.8,2.6,4.5,4.3,4.8,4.5
				c2,2,9.7-4.9,8.1-7.3c-0.2-0.4-2.1-2.3-5.1-5.3c1.4-1.8,2.6-3.7,3.7-5.7c3.5,1.3,5.8,2.2,6.2,2.3c2.7,1.1,7.1-8.3,4.7-9.9
				c-0.4-0.2-2.8-1.3-6.8-3c0.5-2.1,1-4.2,1.2-6.4c3.8-0.1,6.2-0.2,6.6-0.2c2.9,0,3.4-10.3,0.6-10.9c-0.4-0.1-3.1-0.1-7.4-0.2
				c-0.3-2.3-0.8-4.5-1.4-6.7c3.5-1.6,5.6-2.6,6-2.7c2.6-1.1-0.8-10.9-3.7-10.3c-0.4,0.1-2.9,1.1-6.9,2.7c-1.1-1.9-2.3-3.7-3.7-5.4
				c2.6-2.8,4.3-4.5,4.5-4.8c2-2-4.9-9.7-7.3-8.1c-0.4,0.2-2.3,2.1-5.3,5.1c-1.8-1.4-3.7-2.6-5.7-3.7c1.3-3.5,2.2-5.8,2.3-6.2
				c1.1-2.7-8.3-7.1-9.9-4.7c-0.2,0.4-1.3,2.8-3,6.8c-2.1-0.5-4.2-1-6.4-1.2c-0.1-3.8-0.2-6.2-0.2-6.6c0-2.9-10.3-3.4-10.9-0.6
				c-0.1,0.4-0.1,3.1-0.2,7.4c-1.9,0.3-3.7,0.6-5.5,1.1c-1.7-4.1-2.8-6.6-2.9-6.9c-0.7-1.6-8.8,1.2-10.5,3.1
				c-0.5,0.5,0.4,3.6,2.1,8.4c-1.6,0.9-3.2,2-4.6,3.1c-3.2-3.1-5.1-5.1-5.3-5.3c-1.2-1.2-7.7,4.5-8.5,6.9c-0.2,0.7,1.8,3.2,5.2,7
				c-1.2,1.6-2.3,3.2-3.3,4.9c-4.1-1.7-6.7-2.7-6.9-2.8c-1.6-0.7-5.4,7.1-5.2,9.7c0.1,0.7,2.9,2.3,7.5,4.5c-0.5,1.8-0.8,3.6-1.1,5.5
				c-4.5,0-7.2,0-7.5,0C1346.1,175.6,1345.5,184.2,1346.6,186.5z M1400.7,146.2c19.6,0,35.5,15.9,35.5,35.5
				c0,19.6-15.9,35.5-35.5,35.5c-19.6,0-35.5-15.9-35.5-35.5C1365.1,162.1,1381.1,146.2,1400.7,146.2z"/>
			<path id="XMLID_1653_" class="st0" d="M1400.7,203.6c12.1,0,21.9-9.8,21.9-21.9c0-12.1-9.8-21.9-21.9-21.9
				c-12.1,0-21.9,9.8-21.9,21.9C1378.7,193.8,1388.6,203.6,1400.7,203.6z M1400.7,167.2c8,0,14.5,6.5,14.5,14.5
				c0,8-6.5,14.5-14.5,14.5c-8,0-14.5-6.5-14.5-14.5C1386.2,173.7,1392.7,167.2,1400.7,167.2z"/>
		</g>
		<g id="XMLID_1648_">
			<path id="XMLID_1649_" class="st0" d="M892.8,180c0,0,5.9,21.5,13.7,26c0,0,21.5-12.8,28.6,18c0,0,17.6,5.6,31.2,0
				c0,0-1.3-36.9,28-17.3c0,0,13-18.2,15-27.3c0,0-26-18.2,0-31.9c0,0-6.5-20.8-16.9-26.7c0,0-26,10.4-26-16.3c0,0-13-5.2-31.2,0
				c0,0,3.3,22.8-27.3,16.9c0,0-12.4,9.1-15,25.4C892.8,146.8,914.3,155.2,892.8,180z M951.1,135.4c16,0,29,13,29,29s-13,29-29,29
				c-16,0-29-13-29-29S935.1,135.4,951.1,135.4z"/>
		</g>
		<g id="XMLID_1644_">
			<path id="XMLID_1645_" class="st0" d="M203.6,350.5c0,0,0,12.5,3.6,16.1c0,0,13.5-3.8,12.9,13.9c0,0,8.7,5.6,16.9,4.5
				c0,0,4.6-20.1,17.6-5.3c0,0,9.7-8,12.1-12.6c0,0-11.4-13.6,4.6-17.2c0,0-0.5-12.2-5.3-16.9c0,0-15.6,1.8-11.7-12.6
				c0,0-6.3-4.7-16.9-4.5c0,0-1.5,12.8-17.2,5.2c0,0-8,3.1-11.8,11.5C208.4,332.6,218.8,340.3,203.6,350.5z M241.5,334.9
				c8.6,2.3,13.8,11.2,11.4,19.9c-2.3,8.6-11.2,13.8-19.9,11.4c-8.6-2.3-13.8-11.2-11.4-19.9C224,337.7,232.9,332.5,241.5,334.9z"/>
		</g>
		<g id="XMLID_1640_">
			<path id="XMLID_1641_" class="st0" d="M1107,239.5c0,0,4.3,15.8,10.1,19.2c0,0,15.8-9.5,21.1,13.3c0,0,13,4.1,23,0
				c0,0-1-27.2,20.6-12.8c0,0,9.6-13.4,11-20.2c0,0-19.2-13.4,0-23.5c0,0-4.8-15.4-12.5-19.7c0,0-19.2,7.7-19.2-12c0,0-9.6-3.8-23,0
				c0,0,2.4,16.8-20.2,12.5c0,0-9.1,6.7-11,18.7C1107,215,1122.8,221.3,1107,239.5z M1149.9,206.6c11.8,0,21.4,9.6,21.4,21.4
				s-9.6,21.4-21.4,21.4c-11.8,0-21.4-9.6-21.4-21.4S1138.1,206.6,1149.9,206.6z"/>
		</g>
		<g id="XMLID_1636_">
			<path id="XMLID_1637_" class="st0" d="M707.7,294.8c0,0,6.1,7.2,9.9,7.5c0,0,5.9-8.8,14.2,1.8c0,0,7.8-1,12-5.6
				c0,0-7.1-13.9,7.6-11.7c0,0,1.7-9.3,0.9-13.2c0,0-13.3-2.3-5.7-12.2c0,0-6.2-6.8-11.3-7.2c0,0-8.1,8.7-12.9-1.6
				c0,0-5.9,0.3-12,5.6c0,0,5.3,8.2-7.5,11.4c0,0-3.1,5.7-1.2,12.4C701.8,282.1,711.5,281.5,707.7,294.8z M722.1,267.2
				c6.1-2.9,13.4-0.2,16.3,5.9c2.9,6.1,0.2,13.4-5.9,16.3c-6.1,2.9-13.4,0.2-16.3-5.9C713.3,277.4,715.9,270.1,722.1,267.2z"/>
		</g>
		<g id="XMLID_1632_">
			<path id="XMLID_1633_" class="st0" d="M280.6,264.8c0,0,6.1,7.2,9.9,7.5c0,0,5.9-8.8,14.2,1.8c0,0,7.8-1,12-5.6
				c0,0-7.1-13.9,7.6-11.7c0,0,1.7-9.3,0.9-13.2c0,0-13.3-2.3-5.7-12.2c0,0-6.2-6.8-11.3-7.2c0,0-8.1,8.7-12.9-1.6
				c0,0-5.9,0.3-12,5.6c0,0,5.3,8.2-7.5,11.4c0,0-3.1,5.7-1.2,12.4C274.6,252,284.4,251.4,280.6,264.8z M294.9,237.2
				c6.1-2.9,13.4-0.2,16.3,5.9c2.9,6.1,0.2,13.4-5.9,16.3c-6.1,2.9-13.4,0.2-16.3-5.9C286.1,247.4,288.8,240.1,294.9,237.2z"/>
		</g>
		<g id="XMLID_1628_">
			<path id="XMLID_1629_" class="st0" d="M434.4,105.9c0,0,7.6,5.5,11.4,5c0,0,3.7-9.9,14.2-1.7c0,0,7.3-2.8,10.3-8.3
				c0,0-10.2-11.8,4.6-13.2c0,0-0.5-9.5-2.3-13c0,0-13.4,0.9-8.5-10.5c0,0-7.7-5.1-12.7-4.3c0,0-5.8,10.4-12.9,1.6
				c0,0-5.7,1.7-10.3,8.3c0,0,7.1,6.7-4.5,12.8c0,0-1.7,6.3,1.8,12.4C425.6,94.9,434.9,92,434.4,105.9z M441.8,75.7
				c5.3-4.3,13-3.4,17.3,1.9c4.3,5.3,3.4,13-1.9,17.3c-5.3,4.3-13,3.4-17.3-1.9C435.7,87.6,436.5,79.9,441.8,75.7z"/>
		</g>
		<g id="XMLID_1624_">
			<path id="XMLID_1625_" class="st0" d="M959.1,67.7c0,0-3.3,9.1-1.7,12.6c0,0,10.8,0.8,5.6,13.5c0,0,4.8,6.4,11.1,7.8
				c0,0,8.7-13.4,14.2,0.8c0,0,9.2-3.2,12.1-5.9c0,0-4.7-12.9,8-11.3c0,0,2.9-9,0.7-13.7c0,0-11.8-2.8-5.2-12.3
				c0,0-3.3-5.1-11.1-7.8c0,0-4.5,8.9-13.9-0.8c0,0-6.6,0.1-11.6,5.2C967.4,56,972.9,64.3,959.1,67.7z M990.8,66.4
				c5.7,4,7,11.8,3,17.5c-4,5.7-11.8,7-17.5,3c-5.7-4-7-11.8-3-17.5C977.4,63.8,985.2,62.4,990.8,66.4z"/>
		</g>
		<g id="XMLID_1620_">
			<path id="XMLID_1621_" class="st0" d="M606.3,52.1c0,0-10.1,14.9-8.8,22.1c0,0,19.2,6.4,4,27c0,0,5.8,13.7,16.4,19.2
				c0,0,21.9-20.2,25.3,8.1c0,0,18-1.6,24.6-5.2c0,0-2.5-25.6,19.6-16.8c0,0,9.4-14.9,7.5-24.4c0,0-20.1-10.5-3.7-24.5
				c0,0-3.6-10.7-16.4-19.2c0,0-12.3,14-24.8-7.9c0,0-12.1-2.8-23.4,4.2C626.7,34.6,632.8,52.2,606.3,52.1z M664.3,64.4
				c8.4,9.8,7.3,24.6-2.6,33c-9.8,8.4-24.6,7.3-33-2.6s-7.3-24.6,2.6-33C641.1,53.4,655.9,54.5,664.3,64.4z"/>
		</g>
		<g id="XMLID_1615_">
			<path id="XMLID_1617_" class="st0" d="M852.8,66.1c0,0,4.9,18.1,11.5,21.9c0,0,18.1-10.8,24.1,15.2c0,0,14.8,4.7,26.3,0
				c0,0-1.1-31.1,23.6-14.6c0,0,11-15.4,12.6-23c0,0-21.9-15.4,0-26.9c0,0-5.5-17.6-14.3-22.5c0,0-22,8.8-22-13.7c0,0-11-4.4-26.3,0
				c0,0,2.7,19.2-23,14.3c0,0-10.4,7.7-12.6,21.4C852.8,38.1,870.9,45.3,852.8,66.1z M901.9,28.5c13.5,0,24.4,10.9,24.4,24.4
				s-10.9,24.4-24.4,24.4s-24.4-10.9-24.4-24.4S888.4,28.5,901.9,28.5z"/>
			<circle id="XMLID_1616_" class="st0" cx="901.9" cy="52.9" r="14.9"/>
		</g>
		<g id="XMLID_1610_">
			<path id="XMLID_1612_" class="st0" d="M328.4,227.3c0,0,6.2,9.6,10.7,10.7c0,0,8.6-9.6,16.8,4.4c0,0,9.5,0.1,15.3-4.8
				c0,0-6.3-17.9,11.1-12.8c0,0,3.6-10.9,3.1-15.7c0,0-15.6-4.9-4.9-15.7c0,0-6.4-9.2-12.4-10.5c0,0-11.2,9.1-15.3-4
				c0,0-7.2-0.6-15.3,4.8c0,0,5.1,10.7-10.8,12.5c0,0-4.7,6.4-3.4,14.8C323.3,211,335.2,211.8,328.4,227.3z M350.2,196.4
				c7.8-2.5,16.2,1.9,18.7,9.8c2.5,7.8-1.9,16.2-9.8,18.7c-7.8,2.5-16.2-1.9-18.7-9.8C337.9,207.2,342.3,198.9,350.2,196.4z"/>
			<circle id="XMLID_1611_" class="st0" cx="354.6" cy="210.6" r="9.1"/>
		</g>
		<g id="XMLID_1605_">
			<path id="XMLID_1607_" class="st0" d="M104.2,67.4c0,0,6.2,9.6,10.7,10.7c0,0,8.6-9.6,16.8,4.4c0,0,9.5,0.1,15.3-4.8
				c0,0-6.3-17.9,11.1-12.8c0,0,3.6-10.9,3.1-15.7c0,0-15.6-4.9-4.9-15.7c0,0-6.4-9.2-12.4-10.5c0,0-11.2,9.1-15.3-4
				c0,0-7.2-0.6-15.3,4.8c0,0,5.1,10.7-10.8,12.5c0,0-4.7,6.4-3.4,14.8C99.1,51.1,110.9,52,104.2,67.4z M125.9,36.6
				c7.8-2.5,16.2,1.9,18.7,9.8s-1.9,16.2-9.8,18.7c-7.8,2.5-16.2-1.9-18.7-9.8C113.7,47.4,118.1,39,125.9,36.6z"/>
			<circle id="XMLID_1606_" class="st0" cx="130.4" cy="50.8" r="9.1"/>
		</g>
		<g id="XMLID_1600_">
			<path id="XMLID_1602_" class="st0" d="M1296.2,91c0,0,4.5,16.6,10.6,20.1c0,0,16.6-9.9,22.1,13.9c0,0,13.6,4.3,24.2,0
				c0,0-1-28.5,21.6-13.4c0,0,10.1-14.1,11.6-21.1c0,0-20.1-14.1,0-24.7c0,0-5-16.1-13.1-20.6c0,0-20.1,8.1-20.1-12.6
				c0,0-10.1-4-24.1,0c0,0,2.5,17.6-21.1,13.1c0,0-9.6,7-11.6,19.6C1296.2,65.4,1312.8,71.9,1296.2,91z M1341.2,56.6
				c12.4,0,22.4,10,22.4,22.4s-10,22.4-22.4,22.4c-12.4,0-22.4-10-22.4-22.4S1328.8,56.6,1341.2,56.6z"/>
			<circle id="XMLID_1601_" class="st0" cx="1341.2" cy="79" r="13.7"/>
		</g>
		<g id="XMLID_1595_">
			<path id="XMLID_1597_" class="st0" d="M707.2,90.6c0,0,6.3,11,11.3,12.4c0,0,10-10.2,18.5,5.8c0,0,10.5,0.6,17.3-4.5
				c0,0-6.1-20.2,13-13.6c0,0,4.6-12,4.3-17.3c0,0-17.1-6.3-4.6-17.7c0,0-6.6-10.6-13.2-12.3c0,0-12.9,9.5-16.8-5.2
				c0,0-8-1-17.3,4.5c0,0,5.1,12.1-12.7,13.3c0,0-5.5,6.8-4.6,16.2C702.4,72.3,715.5,73.8,707.2,90.6z M733,57.5
				c8.9-2.3,17.9,3,20.2,11.9c2.3,8.9-3,17.9-11.9,20.2c-8.9,2.3-17.9-3-20.2-11.9C718.9,68.9,724.2,59.8,733,57.5z"/>
			<circle id="XMLID_1596_" class="st0" cx="737.2" cy="73.5" r="10.1"/>
		</g>
		<g id="XMLID_1584_">
			<path id="XMLID_1585_" class="st0" d="M765.1,245.9c0.7,0.1,3.5,0.9,8,2.1c-0.4,2-0.7,4-0.8,6c-4.7,0.1-7.5,0.2-7.8,0.3
				c-1.9,0.9-3.6,10.7-0.5,10.4c0.7-0.1,3.6-0.1,8.3-0.2c0.1,1.2,0.3,2.5,0.5,3.7c-4.5,1.2-7.3,2-7.5,2.2
				c-1.6,1.4-0.9,11.3,2.1,10.2c0.6-0.2,3.5-1,8-2.2c0.5,1.4,1,2.8,1.6,4.2c-4.1,2.3-6.5,3.8-6.7,4c-1.2,1.7,2,11.1,4.6,9.4
				c0.5-0.4,3.1-1.9,7.2-4.1c1.1,1.7,2.3,3.3,3.6,4.8c-3.3,3.3-5.2,5.4-5.3,5.7c-0.7,2,5,10.1,7,7.7c0.4-0.5,2.5-2.7,5.7-6
				c1,0.8,2,1.5,3,2.3c-2.4,4.1-3.8,6.6-3.8,6.9c-0.2,2.1,7.3,8.6,8.7,5.8c0.3-0.6,1.8-3.2,4.1-7.2c1.3,0.6,2.7,1.3,4.1,1.8
				c-1.2,4.5-2,7.3-1.9,7.6c0.4,2.1,9.3,6.5,9.9,3.4c0.1-0.7,0.9-3.5,2.1-8c2,0.4,4,0.7,6,0.8c0.1,4.7,0.2,7.5,0.3,7.8
				c0.9,1.9,10.7,3.6,10.4,0.5c-0.1-0.7-0.1-3.6-0.2-8.3c1.5-0.1,2.9-0.4,4.4-0.6c1,3.7,1.6,6.1,1.8,6.6c1.5,4,10.1,1.4,9.4-1.4
				c-0.1-0.4-0.8-3.2-1.8-7.6c1.7-0.6,3.3-1.2,5-2c1.9,3.4,3.1,5.5,3.4,5.9c2.5,3.5,10.1-1.2,8.7-3.7c-0.2-0.3-1.5-2.8-3.7-6.9
				c1.9-1.3,3.7-2.7,5.5-4.2c2.8,2.7,4.5,4.4,5,4.7c3.3,2.7,9.4-4,7.4-6c-0.3-0.3-2.3-2.3-5.5-5.6c1-1.2,1.9-2.4,2.8-3.6
				c3.3,1.9,5.5,3.2,6,3.4c3.9,1.8,8.1-6.2,5.7-7.6c-0.3-0.2-2.8-1.7-6.7-4.1c0.8-1.6,1.5-3.2,2.1-4.9c3.7,1,6.1,1.7,6.6,1.8
				c4.2,0.7,6.3-8,3.6-8.8c-0.4-0.1-3.1-0.9-7.5-2.2c0.4-2.2,0.7-4.5,0.9-6.8c3.9,0,6.3-0.1,6.9-0.2c4.3-0.5,3.8-9.5,0.9-9.5
				c-0.4,0-3.2,0-7.8,0c-0.1-1.5-0.4-3-0.6-4.5c3.7-1,6.1-1.6,6.6-1.8c4-1.5,1.4-10.1-1.4-9.4c-0.4,0.1-3.2,0.8-7.6,1.8
				c-0.6-1.7-1.2-3.3-2-5c3.4-1.9,5.5-3.1,5.9-3.4c3.5-2.5-1.2-10.1-3.7-8.7c-0.3,0.2-2.8,1.5-6.9,3.7c-1.3-1.9-2.7-3.7-4.2-5.5
				c2.7-2.8,4.4-4.5,4.7-4.9c2.7-3.3-4-9.4-6-7.4c-0.3,0.3-2.3,2.3-5.6,5.5c-1.2-1-2.4-1.9-3.6-2.8c1.9-3.3,3.2-5.5,3.4-6
				c1.8-3.9-6.2-8.1-7.6-5.7c-0.2,0.3-1.7,2.8-4.1,6.7c-1.6-0.8-3.2-1.5-4.9-2.1c1-3.7,1.7-6.1,1.8-6.6c0.7-4.2-8-6.3-8.8-3.6
				c-0.1,0.4-0.9,3.1-2.2,7.5c-2.2-0.4-4.5-0.7-6.8-0.9c0-3.9-0.1-6.3-0.2-6.9c-0.5-4.3-9.5-3.8-9.5-0.9c0,0.4,0,3.2,0,7.8
				c-1.3,0.1-2.6,0.3-3.9,0.5c-1.2-4.5-2-7.3-2.2-7.5c-1.4-1.6-11.3-0.9-10.2,2.1c0.2,0.6,1,3.5,2.2,8c-1.4,0.5-2.8,1-4.2,1.6
				c-2.3-4.1-3.8-6.5-4-6.7c-1.7-1.2-11.1,2-9.4,4.6c0.4,0.5,1.9,3.1,4.1,7.2c-1.7,1.1-3.3,2.3-4.8,3.6c-3.3-3.3-5.4-5.2-5.7-5.3
				c-2-0.7-10.1,5-7.7,7c0.5,0.4,2.7,2.5,6,5.7c-0.8,1-1.5,2-2.3,3c-4.1-2.4-6.6-3.8-6.9-3.8c-2.1-0.2-8.6,7.3-5.8,8.7
				c0.6,0.3,3.2,1.8,7.2,4.1c-0.6,1.3-1.3,2.7-1.8,4.1c-4.5-1.2-7.3-2-7.6-1.9C766.4,236.4,762,245.3,765.1,245.9z M821.8,257.9
				h-24.6c0.3-6.8,2.6-13.1,6.4-18.2L821.8,257.9z M857.3,239.6c3.8,5.2,6.1,11.4,6.4,18.2h-24.6L857.3,239.6z M839.1,265h24.2
				c-1.1,6.2-3.8,11.8-7.8,16.4L839.1,265z M821.8,265l-16.4,16.4c-4-4.5-6.8-10.1-7.8-16.4H821.8z M810.7,286.2l16.1-16.1v22.4
				C820.9,291.9,815.4,289.6,810.7,286.2z M834,292.5v-22.4l16.1,16.1C845.5,289.6,840,291.9,834,292.5z M852.5,234.4L834,252.8
				v-26.6C841.1,226.9,847.4,229.9,852.5,234.4z M826.9,226.2v26.6l-18.5-18.5C813.4,229.9,819.8,226.9,826.9,226.2z"/>
		</g>
		<g id="XMLID_1573_">
			<path id="XMLID_1574_" class="st0" d="M111,203.5c0.5,0.1,2.5,0.6,5.6,1.5c-0.3,1.4-0.5,2.8-0.6,4.2c-3.3,0-5.3,0.1-5.5,0.2
				c-1.3,0.7-2.6,7.6-0.3,7.3c0.5,0,2.6-0.1,5.8-0.1c0.1,0.9,0.2,1.7,0.3,2.6c-3.2,0.8-5.2,1.4-5.3,1.5c-1.1,1-0.7,8,1.5,7.2
				c0.4-0.2,2.5-0.7,5.7-1.5c0.3,1,0.7,2,1.1,2.9c-2.9,1.6-4.6,2.7-4.7,2.8c-0.8,1.2,1.4,7.9,3.2,6.6c0.4-0.3,2.2-1.3,5-2.9
				c0.8,1.2,1.7,2.3,2.6,3.4c-2.3,2.4-3.7,3.8-3.7,4c-0.5,1.4,3.5,7.2,5,5.4c0.3-0.4,1.8-1.9,4-4.2c0.7,0.6,1.4,1.1,2.1,1.6
				c-1.7,2.9-2.7,4.6-2.7,4.9c-0.1,1.5,5.2,6.1,6.1,4.1c0.2-0.4,1.3-2.3,2.9-5.1c0.9,0.5,1.9,0.9,2.9,1.3c-0.9,3.2-1.4,5.1-1.3,5.4
				c0.3,1.5,6.5,4.6,7,2.4c0.1-0.5,0.6-2.5,1.5-5.6c1.4,0.3,2.8,0.5,4.2,0.6c0,3.3,0.1,5.3,0.2,5.5c0.7,1.3,7.6,2.6,7.3,0.3
				c0-0.5-0.1-2.6-0.1-5.8c1-0.1,2.1-0.2,3.1-0.4c0.7,2.6,1.1,4.3,1.3,4.7c1.1,2.8,7.1,1,6.6-1c-0.1-0.3-0.5-2.2-1.3-5.4
				c1.2-0.4,2.4-0.9,3.5-1.4c1.3,2.4,2.2,3.9,2.4,4.2c1.7,2.5,7.1-0.9,6.2-2.6c-0.1-0.2-1.1-2-2.6-4.8c1.4-0.9,2.6-1.9,3.9-3
				c1.9,1.9,3.2,3.1,3.5,3.3c2.4,1.9,6.6-2.8,5.2-4.2c-0.2-0.2-1.6-1.6-3.9-3.9c0.7-0.8,1.3-1.7,2-2.6c2.3,1.4,3.9,2.2,4.2,2.4
				c2.7,1.3,5.7-4.3,4-5.4c-0.2-0.1-2-1.2-4.7-2.9c0.6-1.1,1.1-2.3,1.5-3.4c2.6,0.7,4.3,1.2,4.7,1.2c3,0.5,4.4-5.7,2.5-6.2
				c-0.3-0.1-2.2-0.7-5.3-1.6c0.3-1.6,0.5-3.2,0.6-4.8c2.7,0,4.5-0.1,4.8-0.1c3-0.3,2.7-6.7,0.7-6.7c-0.3,0-2.3,0-5.5,0
				c-0.1-1.1-0.2-2.1-0.4-3.2c2.6-0.7,4.3-1.1,4.7-1.3c2.8-1,1-7.1-1-6.6c-0.3,0.1-2.2,0.5-5.4,1.3c-0.4-1.2-0.9-2.4-1.4-3.5
				c2.4-1.3,3.9-2.2,4.2-2.4c2.5-1.7-0.9-7.1-2.6-6.2c-0.2,0.1-2,1.1-4.8,2.6c-0.9-1.4-1.9-2.6-3-3.9c1.9-1.9,3.1-3.2,3.3-3.5
				c1.9-2.4-2.8-6.6-4.2-5.2c-0.2,0.2-1.6,1.6-3.9,3.9c-0.8-0.7-1.7-1.3-2.6-2c1.4-2.3,2.2-3.9,2.4-4.2c1.3-2.7-4.3-5.7-5.4-4
				c-0.1,0.2-1.2,2-2.9,4.7c-1.1-0.5-2.3-1-3.4-1.5c0.7-2.6,1.2-4.3,1.2-4.7c0.5-3-5.7-4.4-6.2-2.5c-0.1,0.3-0.7,2.2-1.6,5.3
				c-1.6-0.3-3.2-0.5-4.8-0.6c0-2.7-0.1-4.5-0.1-4.8c-0.3-3-6.7-2.7-6.7-0.7c0,0.3,0,2.3,0,5.5c-0.9,0.1-1.8,0.2-2.7,0.4
				c-0.8-3.2-1.4-5.2-1.5-5.3c-1-1.1-8-0.7-7.2,1.5c0.2,0.4,0.7,2.5,1.5,5.7c-1,0.3-2,0.7-2.9,1.1c-1.6-2.9-2.7-4.6-2.8-4.7
				c-1.2-0.8-7.9,1.4-6.6,3.2c0.3,0.4,1.3,2.2,2.9,5c-1.2,0.8-2.3,1.7-3.4,2.6c-2.4-2.3-3.8-3.7-4-3.7c-1.4-0.5-7.2,3.5-5.4,5
				c0.4,0.3,1.9,1.8,4.2,4c-0.6,0.7-1.1,1.4-1.6,2.1c-2.9-1.7-4.6-2.7-4.9-2.7c-1.5-0.1-6.1,5.2-4.1,6.1c0.4,0.2,2.3,1.3,5.1,2.9
				c-0.5,0.9-0.9,1.9-1.3,2.9c-3.2-0.9-5.1-1.4-5.4-1.3C111.9,196.8,108.8,203.1,111,203.5z M150.9,211.9h-17.4
				c0.2-4.8,1.9-9.2,4.5-12.9L150.9,211.9z M176,199.1c2.7,3.6,4.3,8.1,4.5,12.9h-17.4L176,199.1z M163.1,217h17.1
				c-0.8,4.4-2.7,8.3-5.5,11.5L163.1,217z M150.9,217l-11.5,11.5c-2.8-3.2-4.8-7.2-5.5-11.5H150.9z M143.1,231.9l11.4-11.4v15.8
				C150.3,235.9,146.4,234.3,143.1,231.9z M159.5,236.4v-15.8l11.4,11.4C167.7,234.3,163.8,235.9,159.5,236.4z M172.6,195.3l-13,13
				v-18.8C164.5,190.1,169,192.2,172.6,195.3z M154.5,189.6v18.8l-13-13C145,192.2,149.5,190.1,154.5,189.6z"/>
		</g>
		<g id="XMLID_1562_">
			<path id="XMLID_1563_" class="st0" d="M1180.3,43.1c0.5,0.1,2.7,0.7,6.2,1.7c-0.3,1.5-0.5,3.1-0.7,4.7c-3.6,0.1-5.9,0.1-6.1,0.2
				c-1.5,0.7-2.8,8.3-0.4,8.1c0.5-0.1,2.8-0.1,6.4-0.1c0.1,1,0.2,1.9,0.4,2.9c-3.5,0.9-5.7,1.5-5.9,1.7c-1.2,1.1-0.7,8.8,1.6,7.9
				c0.5-0.2,2.7-0.8,6.2-1.7c0.4,1.1,0.8,2.2,1.2,3.2c-3.2,1.8-5.1,2.9-5.2,3.1c-0.9,1.4,1.5,8.7,3.6,7.3c0.4-0.3,2.4-1.4,5.6-3.2
				c0.9,1.3,1.8,2.6,2.8,3.8c-2.5,2.6-4,4.2-4.1,4.5c-0.5,1.6,3.9,7.9,5.5,6c0.3-0.4,1.9-2.1,4.5-4.6c0.7,0.6,1.5,1.2,2.3,1.8
				c-1.8,3.2-2.9,5.1-2.9,5.4c-0.1,1.6,5.7,6.7,6.7,4.5c0.2-0.5,1.4-2.5,3.2-5.6c1,0.5,2.1,1,3.2,1.4c-1,3.5-1.5,5.7-1.5,5.9
				c0.3,1.6,7.2,5,7.7,2.6c0.1-0.5,0.7-2.7,1.7-6.2c1.5,0.3,3.1,0.5,4.7,0.7c0.1,3.6,0.1,5.9,0.2,6.1c0.7,1.5,8.3,2.8,8.1,0.4
				c-0.1-0.5-0.1-2.8-0.1-6.4c1.1-0.1,2.3-0.3,3.4-0.5c0.8,2.9,1.3,4.8,1.4,5.2c1.2,3.1,7.9,1.1,7.3-1.1c-0.1-0.3-0.6-2.5-1.4-5.9
				c1.3-0.5,2.6-1,3.9-1.5c1.5,2.6,2.4,4.3,2.7,4.6c1.9,2.7,7.9-1,6.8-2.9c-0.1-0.3-1.2-2.2-2.9-5.3c1.5-1,2.9-2.1,4.3-3.3
				c2.1,2.1,3.5,3.4,3.9,3.7c2.6,2.1,7.3-3.1,5.7-4.7c-0.2-0.2-1.8-1.8-4.3-4.3c0.8-0.9,1.5-1.9,2.2-2.8c2.6,1.5,4.3,2.5,4.6,2.6
				c3,1.4,6.3-4.8,4.4-5.9c-0.3-0.2-2.2-1.3-5.2-3.2c0.6-1.2,1.2-2.5,1.7-3.8c2.9,0.8,4.7,1.3,5.2,1.4c3.3,0.6,4.9-6.2,2.8-6.9
				c-0.3-0.1-2.4-0.7-5.8-1.7c0.3-1.7,0.6-3.5,0.7-5.3c3,0,4.9-0.1,5.3-0.1c3.3-0.4,2.9-7.4,0.7-7.4c-0.3,0-2.5,0-6.1,0
				c-0.1-1.2-0.3-2.4-0.5-3.5c2.9-0.8,4.8-1.3,5.1-1.4c3.1-1.2,1.1-7.9-1.1-7.3c-0.3,0.1-2.5,0.6-5.9,1.4c-0.5-1.3-1-2.6-1.5-3.9
				c2.6-1.5,4.3-2.4,4.6-2.7c2.7-1.9-1-7.9-2.9-6.8c-0.3,0.1-2.2,1.2-5.3,2.9c-1-1.5-2.1-2.9-3.3-4.3c2.1-2.1,3.4-3.5,3.7-3.8
				c2.1-2.6-3.1-7.3-4.7-5.7c-0.2,0.2-1.8,1.8-4.3,4.3c-0.9-0.8-1.9-1.5-2.8-2.2c1.5-2.6,2.5-4.2,2.6-4.6c1.4-3-4.8-6.3-5.9-4.4
				c-0.2,0.3-1.3,2.2-3.2,5.2c-1.2-0.6-2.5-1.2-3.8-1.7c0.8-2.9,1.3-4.7,1.4-5.2c0.6-3.3-6.2-4.9-6.9-2.8c-0.1,0.3-0.7,2.4-1.7,5.8
				c-1.7-0.3-3.5-0.6-5.3-0.7c0-3-0.1-4.9-0.1-5.3c-0.4-3.3-7.4-2.9-7.4-0.7c0,0.3,0,2.5,0,6.1c-1,0.1-2,0.2-3,0.4
				c-0.9-3.5-1.5-5.7-1.7-5.9c-1.1-1.3-8.8-0.7-7.9,1.6c0.2,0.5,0.8,2.7,1.7,6.2c-1.1,0.4-2.2,0.8-3.2,1.2c-1.8-3.2-2.9-5.1-3.1-5.2
				c-1.4-0.9-8.7,1.5-7.3,3.6c0.3,0.4,1.4,2.4,3.2,5.6c-1.3,0.9-2.6,1.8-3.8,2.8c-2.6-2.5-4.2-4-4.5-4.1c-1.6-0.5-7.9,3.9-6,5.5
				c0.4,0.3,2.1,1.9,4.6,4.5c-0.6,0.7-1.2,1.5-1.8,2.3c-3.2-1.8-5.1-2.9-5.3-2.9c-1.6-0.1-6.7,5.7-4.5,6.7c0.5,0.2,2.5,1.4,5.6,3.2
				c-0.5,1-1,2.1-1.4,3.2c-3.5-1-5.7-1.5-5.9-1.5C1181.3,35.7,1177.8,42.6,1180.3,43.1z M1224.3,52.4h-19.2c0.2-5.3,2-10.2,5-14.2
				L1224.3,52.4z M1251.9,38.2c2.9,4,4.8,8.9,5,14.2h-19.2L1251.9,38.2z M1237.8,58h18.8c-0.8,4.8-3,9.2-6.1,12.7L1237.8,58z
				 M1224.3,58l-12.7,12.7c-3.1-3.5-5.3-7.9-6.1-12.7H1224.3z M1215.7,74.4l12.5-12.5v17.4C1223.6,78.8,1219.3,77.1,1215.7,74.4z
				 M1233.8,79.3V61.9l12.5,12.5C1242.8,77.1,1238.5,78.8,1233.8,79.3z M1248.2,34.1l-14.4,14.4V27.7
				C1239.3,28.3,1244.3,30.6,1248.2,34.1z M1228.3,27.7v20.7l-14.4-14.4C1217.8,30.6,1222.8,28.3,1228.3,27.7z"/>
		</g>
		<g id="XMLID_1551_">
			<path id="XMLID_1552_" class="st0" d="M391.5,173.9c0.6,0.1,3.4,0.9,7.6,2.1c-0.4,1.9-0.6,3.8-0.8,5.7c-4.5,0.1-7.2,0.2-7.5,0.3
				c-1.8,0.9-3.5,10.3-0.5,10c0.6-0.1,3.5-0.1,7.9-0.2c0.1,1.2,0.3,2.4,0.5,3.5c-4.4,1.2-7,1.9-7.2,2.1c-1.5,1.3-0.9,10.8,2,9.8
				c0.6-0.2,3.4-1,7.7-2.1c0.5,1.4,1,2.7,1.5,4c-3.9,2.2-6.2,3.6-6.4,3.8c-1.2,1.7,1.9,10.7,4.4,9c0.5-0.4,3-1.8,6.9-3.9
				c1.1,1.6,2.2,3.1,3.5,4.6c-3.1,3.2-5,5.2-5.1,5.5c-0.6,1.9,4.8,9.7,6.7,7.4c0.4-0.5,2.4-2.6,5.5-5.7c0.9,0.8,1.9,1.5,2.8,2.2
				c-2.3,3.9-3.6,6.3-3.6,6.6c-0.2,2,7,8.3,8.3,5.5c0.3-0.6,1.7-3.1,4-6.9c1.3,0.6,2.6,1.2,3.9,1.7c-1.2,4.3-1.9,7-1.8,7.3
				c0.4,2,8.9,6.2,9.4,3.2c0.1-0.6,0.9-3.4,2.1-7.6c1.9,0.4,3.8,0.6,5.7,0.8c0.1,4.5,0.2,7.2,0.3,7.5c0.9,1.8,10.3,3.5,10,0.5
				c-0.1-0.6-0.1-3.5-0.2-7.9c1.4-0.1,2.8-0.3,4.2-0.6c0.9,3.6,1.6,5.9,1.7,6.3c1.4,3.8,9.7,1.3,9-1.3c-0.1-0.4-0.7-3-1.8-7.3
				c1.6-0.6,3.2-1.2,4.8-1.9c1.8,3.2,3,5.2,3.3,5.7c2.4,3.4,9.7-1.2,8.4-3.6c-0.2-0.3-1.5-2.7-3.5-6.6c1.8-1.2,3.6-2.6,5.3-4
				c2.6,2.6,4.3,4.2,4.7,4.5c3.2,2.6,9-3.8,7.1-5.8c-0.3-0.3-2.2-2.2-5.3-5.3c0.9-1.1,1.8-2.3,2.7-3.5c3.2,1.9,5.2,3,5.7,3.3
				c3.7,1.7,7.8-5.9,5.4-7.3c-0.3-0.2-2.7-1.6-6.4-3.9c0.7-1.5,1.4-3.1,2-4.7c3.6,1,5.8,1.6,6.3,1.7c4,0.7,6-7.7,3.4-8.4
				c-0.4-0.1-3-0.9-7.2-2.1c0.4-2.1,0.7-4.3,0.9-6.6c3.7,0,6.1-0.1,6.6-0.2c4.1-0.5,3.6-9.1,0.9-9.1c-0.4,0-3.1,0-7.5,0
				c-0.1-1.5-0.3-2.9-0.6-4.4c3.6-0.9,5.9-1.6,6.3-1.7c3.8-1.4,1.3-9.7-1.3-9c-0.4,0.1-3,0.7-7.3,1.8c-0.6-1.6-1.2-3.2-1.9-4.8
				c3.2-1.8,5.2-3,5.7-3.3c3.4-2.4-1.2-9.7-3.6-8.4c-0.3,0.2-2.7,1.5-6.6,3.5c-1.2-1.8-2.6-3.6-4-5.3c2.6-2.6,4.2-4.3,4.5-4.7
				c2.6-3.2-3.8-9-5.8-7.1c-0.3,0.3-2.2,2.2-5.3,5.3c-1.1-0.9-2.3-1.8-3.5-2.7c1.9-3.2,3-5.2,3.3-5.7c1.7-3.7-5.9-7.8-7.3-5.4
				c-0.2,0.3-1.6,2.7-3.9,6.4c-1.5-0.7-3.1-1.4-4.7-2c1-3.6,1.6-5.8,1.7-6.3c0.7-4-7.7-6-8.4-3.4c-0.1,0.4-0.9,3-2.1,7.2
				c-2.1-0.4-4.3-0.7-6.6-0.9c0-3.7-0.1-6.1-0.2-6.6c-0.5-4.1-9.1-3.6-9.1-0.9c0,0.4,0,3.1,0,7.5c-1.3,0.1-2.5,0.3-3.7,0.5
				c-1.2-4.4-1.9-7-2.1-7.2c-1.3-1.5-10.8-0.9-9.8,2c0.2,0.6,1,3.4,2.1,7.7c-1.4,0.5-2.7,1-4,1.5c-2.2-3.9-3.6-6.2-3.8-6.4
				c-1.7-1.2-10.7,1.9-9,4.4c0.4,0.5,1.8,3,3.9,6.9c-1.6,1.1-3.1,2.2-4.6,3.5c-3.2-3.1-5.2-5-5.5-5.1c-1.9-0.6-9.7,4.8-7.4,6.7
				c0.5,0.4,2.6,2.4,5.7,5.5c-0.8,0.9-1.5,1.9-2.2,2.8c-3.9-2.3-6.3-3.6-6.6-3.6c-2-0.2-8.3,7-5.5,8.3c0.6,0.3,3.1,1.7,6.9,4
				c-0.6,1.3-1.2,2.6-1.7,3.9c-4.3-1.2-7-1.9-7.3-1.8C392.7,164.8,388.5,173.4,391.5,173.9z M445.8,185.4h-23.6
				c0.3-6.5,2.5-12.5,6.1-17.5L445.8,185.4z M479.8,167.9c3.6,4.9,5.9,10.9,6.1,17.5h-23.6L479.8,167.9z M462.3,192.2h23.2
				c-1,6-3.7,11.3-7.5,15.7L462.3,192.2z M445.8,192.2l-15.7,15.7c-3.8-4.3-6.5-9.7-7.5-15.7H445.8z M435.2,212.5l15.4-15.4v21.5
				C444.9,217.9,439.6,215.8,435.2,212.5z M457.5,218.5v-21.5l15.4,15.4C468.5,215.8,463.2,217.9,457.5,218.5z M475.2,162.8
				l-17.7,17.7V155C464.2,155.7,470.3,158.6,475.2,162.8z M450.6,155v25.5l-17.7-17.7C437.8,158.6,443.9,155.7,450.6,155z"/>
		</g>
		<g id="XMLID_1544_">
			<path id="XMLID_1548_" class="st0" d="M1017.8,89.9c0.8,0.1,4.1,1,9.2,2.5c-0.4,2.3-0.8,4.6-1,6.9c-5.4,0.1-8.7,0.2-9,0.3
				c-2.2,1.1-4.2,12.4-0.5,12c0.8-0.1,4.2-0.1,9.6-0.2c0.1,1.4,0.3,2.8,0.6,4.3c-5.3,1.4-8.5,2.3-8.7,2.5c-1.9,1.6-1.1,13,2.4,11.8
				c0.7-0.3,4.1-1.2,9.3-2.5c0.6,1.6,1.2,3.2,1.8,4.8c-4.7,2.7-7.5,4.3-7.7,4.6c-1.4,2,2.3,12.9,5.3,10.8c0.6-0.4,3.6-2.1,8.3-4.8
				c1.3,1.9,2.7,3.8,4.2,5.6c-3.8,3.9-6,6.3-6.1,6.6c-0.8,2.3,5.8,11.7,8.1,8.9c0.5-0.6,2.9-3.1,6.6-6.9c1.1,0.9,2.3,1.8,3.4,2.6
				c-2.7,4.7-4.3,7.6-4.4,7.9c-0.2,2.4,8.5,10,10,6.7c0.3-0.7,2.1-3.7,4.8-8.3c1.5,0.7,3.1,1.5,4.7,2.1c-1.4,5.2-2.3,8.4-2.2,8.8
				c0.4,2.4,10.7,7.5,11.4,3.9c0.1-0.8,1-4.1,2.5-9.2c2.3,0.4,4.6,0.8,6.9,1c0.1,5.4,0.2,8.7,0.3,9c1.1,2.2,12.4,4.2,12,0.5
				c-0.1-0.8-0.1-4.2-0.2-9.6c1.7-0.2,3.4-0.4,5-0.7c1.1,4.3,1.9,7.1,2.1,7.7c1.7,4.6,11.7,1.6,10.9-1.6c-0.1-0.4-0.9-3.6-2.1-8.8
				c2-0.7,3.9-1.4,5.7-2.3c2.2,3.9,3.6,6.3,4,6.8c2.8,4,11.7-1.4,10.1-4.3c-0.2-0.4-1.8-3.3-4.3-7.9c2.2-1.5,4.3-3.1,6.3-4.8
				c3.2,3.1,5.2,5.1,5.7,5.5c3.9,3.1,10.8-4.6,8.5-7c-0.3-0.3-2.6-2.7-6.3-6.4c1.1-1.3,2.2-2.8,3.2-4.2c3.8,2.2,6.3,3.7,6.9,3.9
				c4.5,2.1,9.4-7.1,6.6-8.8c-0.4-0.2-3.2-2-7.7-4.7c0.9-1.8,1.7-3.7,2.5-5.6c4.3,1.2,7,1.9,7.7,2c4.9,0.9,7.3-9.3,4.1-10.2
				c-0.4-0.1-3.6-1.1-8.6-2.6c0.5-2.6,0.8-5.2,1-7.9c4.5-0.1,7.3-0.1,7.9-0.2c4.9-0.5,4.4-10.9,1.1-10.9c-0.5,0-3.7,0-9-0.1
				c-0.2-1.8-0.4-3.5-0.7-5.2c4.3-1.1,7.1-1.9,7.6-2.1c4.6-1.7,1.6-11.7-1.6-10.9c-0.4,0.1-3.6,0.9-8.8,2.1c-0.7-2-1.4-3.9-2.3-5.7
				c3.9-2.2,6.3-3.6,6.8-4c4-2.8-1.4-11.7-4.3-10.1c-0.4,0.2-3.3,1.8-7.9,4.3c-1.5-2.2-3.1-4.3-4.8-6.3c3.1-3.2,5.1-5.2,5.5-5.7
				c3.1-3.9-4.6-10.8-7-8.5c-0.3,0.3-2.7,2.6-6.4,6.3c-1.4-1.1-2.8-2.2-4.2-3.2c2.2-3.8,3.7-6.3,3.9-6.9c2.1-4.5-7.1-9.4-8.8-6.6
				c-0.2,0.4-2,3.2-4.7,7.7c-1.8-0.9-3.7-1.7-5.6-2.5c1.2-4.3,1.9-7,2-7.7c0.9-4.9-9.3-7.3-10.2-4.1c-0.1,0.4-1.1,3.6-2.6,8.6
				c-2.6-0.5-5.2-0.8-7.9-1c-0.1-4.5-0.1-7.3-0.2-7.9c-0.5-4.9-10.9-4.4-10.9-1.1c0,0.5,0,3.7-0.1,9c-1.5,0.1-3,0.3-4.5,0.6
				c-1.4-5.3-2.3-8.4-2.5-8.7c-1.6-1.9-13-1.1-11.8,2.4c0.3,0.7,1.2,4.1,2.5,9.2c-1.6,0.6-3.2,1.2-4.8,1.8c-2.7-4.7-4.3-7.5-4.6-7.7
				c-2-1.4-12.9,2.3-10.8,5.3c0.4,0.6,2.1,3.6,4.8,8.3c-1.9,1.3-3.8,2.7-5.6,4.2c-3.9-3.8-6.3-6-6.6-6.1c-2.3-0.8-11.7,5.8-8.9,8.1
				c0.6,0.5,3.1,2.9,6.9,6.6c-0.9,1.1-1.8,2.3-2.6,3.4c-4.7-2.7-7.6-4.3-7.9-4.4c-2.4-0.2-10,8.5-6.7,10c0.7,0.3,3.7,2.1,8.3,4.8
				c-0.7,1.5-1.5,3.1-2.1,4.7c-5.2-1.4-8.4-2.3-8.8-2.2C1019.3,79,1014.2,89.2,1017.8,89.9z M1093.2,52.6
				c29.2,0,52.9,23.7,52.9,52.9c0,29.2-23.7,52.9-52.9,52.9s-52.9-23.7-52.9-52.9C1040.3,76.2,1064,52.6,1093.2,52.6z"/>
			<path id="XMLID_1545_" class="st0" d="M1093.2,145.7c22.3,0,40.3-18,40.3-40.3c0-22.3-18-40.3-40.3-40.3
				c-22.3,0-40.3,18-40.3,40.3C1052.9,127.7,1070.9,145.7,1093.2,145.7z M1093.2,78.2c15,0,27.2,12.2,27.2,27.2
				c0,15-12.2,27.2-27.2,27.2s-27.2-12.2-27.2-27.2C1066,90.4,1078.2,78.2,1093.2,78.2z"/>
		</g>
	</g>
</g>
</svg>
