<?xml version="1.0" encoding="utf-8"?>
<!-- Generator: Adobe Illustrator 19.0.0, SVG Export Plug-In . SVG Version: 6.00 Build 0)  -->
<svg version="1.1" id="Layer_1" xmlns="http://www.w3.org/2000/svg" xmlns:xlink="http://www.w3.org/1999/xlink" x="0px" y="0px"
	 viewBox="0 0 292.5 31.4" style="enable-background:new 0 0 292.5 31.4;" xml:space="preserve">
<style type="text/css">
	.st0{fill:#FFFFFF;}
	.st1{fill:#ECA452;}
</style>
<g>
	<g>
		<path class="st0" d="M52.4,18.2h-7.1v9.7h-4.9V3.1h14.3c1.6,0,4.1,0.2,6,2.1c1.7,1.7,2,3.9,2,5.6c0,1.5-0.2,3.1-1.4,4.6
			c-0.8,1.1-2,1.9-3.5,2.4l5.9,10.1h-5.5L52.4,18.2z M54.2,13.4c0.9,0,1.8,0,2.5-0.8c0.6-0.6,0.8-1.4,0.8-2.2c0-1.2-0.5-1.9-1-2.2
			c-0.7-0.5-1.7-0.5-2.6-0.5h-8.6v5.6H54.2z"/>
		<path class="st0" d="M65,15.5c0-7.5,5.5-13,12.9-13c7.4,0,12.9,5.5,12.9,13c0,7.5-5.5,13-12.9,13C70.5,28.6,65,23.1,65,15.5z
			 M70.1,15.5c0,4.9,3.4,8.2,7.8,8.2c4.5,0,7.8-3.4,7.8-8.2c0-4.8-3.3-8.2-7.8-8.2C73.5,7.3,70.1,10.7,70.1,15.5z"/>
		<path class="st0" d="M108.9,3.1c2.3,0,5.3,0.2,7.1,2.1c1.4,1.4,1.6,3,1.6,4.1c0,3-1.5,4.2-2.1,4.7c0.9,0.4,1.9,1,2.8,2.4
			c0.7,1.3,0.9,2.4,0.9,3.8c0,2.7-1,4.4-2.1,5.4c-2,2.1-4.5,2.3-6.7,2.3H95.2V3.1H108.9z M109.4,12.4c0.8,0,1.8-0.1,2.3-0.5
			c0.4-0.2,0.9-0.8,0.9-2.1c0-0.5,0-1.3-0.9-1.8c-0.6-0.3-1.4-0.4-2-0.4h-0.4h-9.2v4.8H109.4z M109.9,23.4c1.1,0,2.4,0,3.2-0.7
			c0.7-0.6,1.1-1.7,1.1-2.6c0-1.5-0.7-2.1-0.9-2.3c-0.7-0.6-2-0.8-3-0.8h-10.1v6.4H109.9z"/>
		<path class="st0" d="M122.5,15.5c0-7.5,5.5-13,12.9-13c7.4,0,12.9,5.5,12.9,13c0,7.5-5.5,13-12.9,13
			C127.9,28.6,122.5,23.1,122.5,15.5z M127.5,15.5c0,4.9,3.4,8.2,7.8,8.2c4.5,0,7.8-3.4,7.8-8.2c0-4.8-3.3-8.2-7.8-8.2
			C130.9,7.3,127.5,10.7,127.5,15.5z"/>
		<path class="st0" d="M78,2.5v4.8c4.4,0.1,7.7,3.4,7.7,8.2c0,4.8-3.3,8.1-7.7,8.2v4.8c7.3-0.1,12.8-5.5,12.8-13S85.3,2.6,78,2.5z"
			/>
		<path class="st0" d="M135.5,2.5v4.8c4.4,0.1,7.7,3.4,7.7,8.2c0,4.8-3.3,8.1-7.7,8.2v4.8c7.3-0.1,12.8-5.5,12.8-13
			S142.8,2.6,135.5,2.5z"/>
	</g>
	<g>
		<path class="st0" d="M178.5,21.7c-1.1,2.2-2.8,3.9-4.5,5c-2.1,1.4-4.2,1.9-6.9,1.9c-3.4,0-6.8-0.8-9.4-3.6c-2-2-3.6-5.3-3.6-9.2
			c0-3.4,1.2-7,3.6-9.5c1.6-1.6,4.6-3.6,9.4-3.6c2.7,0,5,0.6,6.7,1.7c1.5,0.9,3.1,2.3,4.3,4.1l-4.2,3c-0.7-1.1-1.7-2.3-2.8-3
			c-1-0.6-2.3-1-4.1-1c-2.4,0-4.1,0.7-5.6,2.2c-1.2,1.2-2.3,3.1-2.3,6.2c0,2.6,1,4.7,2.4,6.1c1.3,1.3,3,2,5.4,2
			c1.9,0,3.3-0.5,4.7-1.5c1.1-0.8,2.2-1.9,2.9-3.6L178.5,21.7z"/>
		<path class="st0" d="M182.7,3.1h5v20.1h14.9v4.7h-19.9V3.1z"/>
		<path class="st0" d="M225.9,19.6c0,2.4-0.3,4.8-2.5,6.7c-2.1,1.8-5.4,2.2-8.3,2.2c-2.6,0-6.1-0.2-8.4-2.5
			c-1.8-1.9-2.2-4.4-2.2-6.4V3.1h5v16.1c0,1.3,0,2.7,1.3,3.7c1.1,0.9,2.7,0.9,4.2,0.9c1.9,0,3.5-0.2,4.6-1c1.4-1.1,1.4-2.9,1.4-4.1
			V3.1h4.9V19.6z"/>
		<path class="st0" d="M245.4,3.1c2.3,0,5.3,0.2,7.1,2.1c1.4,1.4,1.6,3,1.6,4.1c0,3-1.5,4.2-2.1,4.7c0.9,0.4,1.9,1,2.8,2.4
			c0.7,1.3,0.9,2.4,0.9,3.8c0,2.7-1,4.4-2.1,5.4c-2,2.1-4.5,2.3-6.7,2.3h-15.3V3.1H245.4z M245.9,12.4c0.8,0,1.8-0.1,2.3-0.5
			c0.4-0.2,0.9-0.8,0.9-2.1c0-0.5,0-1.3-0.9-1.8c-0.6-0.3-1.4-0.4-2-0.4h-0.4h-9.2v4.8H245.9z M246.5,23.4c1.1,0,2.4,0,3.2-0.7
			c0.7-0.6,1.1-1.7,1.1-2.6c0-1.5-0.7-2.1-0.9-2.3c-0.7-0.6-2-0.8-3-0.8h-10.1v6.4H246.5z"/>
		<path class="st0" d="M261.1,3.1h5v25h-5V3.1z"/>
		<path class="st0" d="M277.5,12.4h9.1v4.7h-9.1v10.8h-4.9V3.1h20v4.7h-15.1V12.4z"/>
		<path class="st0" d="M221,18.6c0,1.3,0,3-1.4,4.1c-1.1,0.8-2.6,1-4.5,1v4.8c0,0,0,0,0,0c2.9,0,6.2-0.4,8.3-2.2
			c2.2-1.9,2.5-4.3,2.5-6.7V3.1H221V18.6z"/>
		<path class="st0" d="M174.6,18.7c-0.7,1.6-1.8,2.8-2.9,3.6c-1.4,1-2.8,1.5-4.7,1.5c-0.1,0-0.1,0-0.2,0v4.8c0.1,0,0.2,0,0.4,0
			c2.7,0,4.8-0.5,6.9-1.9c1.7-1.1,3.3-2.8,4.5-5L174.6,18.7z M171.3,8.3c1.1,0.7,2.1,1.8,2.8,3l4.2-3c-1.2-1.7-2.8-3.2-4.3-4.1
			c-1.7-1.1-4-1.7-6.7-1.7c-0.1,0-0.3,0-0.4,0v4.8c0.1,0,0.2,0,0.4,0C169,7.3,170.3,7.8,171.3,8.3z"/>
	</g>
</g>
<g>
	<g id="XMLID_80_">
		<path id="XMLID_81_" class="st1" d="M0.7,12.6c0.2,0,0.8,0.2,1.8,0.5c-0.1,0.5-0.2,0.9-0.2,1.4c-1.1,0-1.7,0-1.8,0.1
			C0.1,14.8-0.3,17,0.4,17c0.2,0,0.8,0,1.9,0c0,0.3,0.1,0.6,0.1,0.8c-1,0.3-1.7,0.5-1.7,0.5c-0.4,0.3-0.2,2.6,0.5,2.4
			C1.3,20.6,2,20.4,3,20.1c0.1,0.3,0.2,0.6,0.4,1c-0.9,0.5-1.5,0.9-1.5,0.9c-0.3,0.4,0.5,2.6,1.1,2.2c0.1-0.1,0.7-0.4,1.6-0.9
			c0.3,0.4,0.5,0.8,0.8,1.1c-0.7,0.8-1.2,1.3-1.2,1.3C4,26.1,5.3,28,5.8,27.4c0.1-0.1,0.6-0.6,1.3-1.4c0.2,0.2,0.5,0.4,0.7,0.5
			c-0.5,0.9-0.9,1.5-0.9,1.6c0,0.5,1.7,2,2,1.3c0.1-0.1,0.4-0.7,1-1.7c0.3,0.1,0.6,0.3,0.9,0.4c-0.3,1-0.5,1.7-0.4,1.7
			c0.1,0.5,2.1,1.5,2.3,0.8c0-0.2,0.2-0.8,0.5-1.8c0.5,0.1,0.9,0.2,1.4,0.2c0,1.1,0,1.7,0.1,1.8c0.2,0.4,2.5,0.8,2.4,0.1
			c0-0.2,0-0.8,0-1.9c0.3,0,0.7-0.1,1-0.1c0.2,0.9,0.4,1.4,0.4,1.5c0.3,0.9,2.3,0.3,2.2-0.3c0-0.1-0.2-0.7-0.4-1.8
			c0.4-0.1,0.8-0.3,1.1-0.5c0.4,0.8,0.7,1.3,0.8,1.4c0.6,0.8,2.3-0.3,2-0.9c0-0.1-0.4-0.7-0.9-1.6c0.4-0.3,0.9-0.6,1.3-1
			c0.6,0.6,1,1,1.1,1.1c0.8,0.6,2.2-0.9,1.7-1.4c-0.1-0.1-0.5-0.5-1.3-1.3c0.2-0.3,0.4-0.6,0.6-0.8c0.8,0.4,1.3,0.7,1.4,0.8
			c0.9,0.4,1.9-1.4,1.3-1.8c-0.1,0-0.6-0.4-1.5-0.9c0.2-0.4,0.3-0.7,0.5-1.1c0.9,0.2,1.4,0.4,1.5,0.4c1,0.2,1.4-1.8,0.8-2
			c-0.1,0-0.7-0.2-1.7-0.5c0.1-0.5,0.2-1,0.2-1.6c0.9,0,1.5,0,1.6,0c1-0.1,0.9-2.2,0.2-2.2c-0.1,0-0.7,0-1.8,0c0-0.4-0.1-0.7-0.1-1
			c0.9-0.2,1.4-0.4,1.5-0.4c0.9-0.3,0.3-2.3-0.3-2.2c-0.1,0-0.7,0.2-1.8,0.4c-0.1-0.4-0.3-0.8-0.5-1.1c0.8-0.4,1.3-0.7,1.4-0.8
			c0.8-0.6-0.3-2.3-0.9-2c-0.1,0-0.7,0.4-1.6,0.9c-0.3-0.4-0.6-0.9-1-1.3c0.6-0.6,1-1,1.1-1.1c0.6-0.8-0.9-2.2-1.4-1.7
			c-0.1,0.1-0.5,0.5-1.3,1.3c-0.3-0.2-0.6-0.4-0.8-0.6C24,4,24.3,3.5,24.3,3.4c0.4-0.9-1.4-1.9-1.8-1.3c0,0.1-0.4,0.6-0.9,1.5
			c-0.4-0.2-0.7-0.3-1.1-0.5c0.2-0.9,0.4-1.4,0.4-1.5c0.2-1-1.8-1.4-2-0.8c0,0.1-0.2,0.7-0.5,1.7c-0.5-0.1-1-0.2-1.6-0.2
			c0-0.9,0-1.5,0-1.6c-0.1-1-2.2-0.9-2.2-0.2c0,0.1,0,0.7,0,1.8c-0.3,0-0.6,0.1-0.9,0.1c-0.3-1-0.5-1.7-0.5-1.7
			c-0.3-0.4-2.6-0.2-2.4,0.5C10.8,1.3,11,2,11.3,3c-0.3,0.1-0.6,0.2-1,0.4C9.8,2.4,9.5,1.9,9.4,1.8C9,1.6,6.8,2.3,7.3,2.9
			C7.3,3,7.7,3.6,8.2,4.5C7.8,4.8,7.5,5.1,7.1,5.4C6.3,4.6,5.8,4.2,5.8,4.1C5.3,4,3.4,5.3,4,5.8c0.1,0.1,0.6,0.6,1.4,1.3
			C5.2,7.3,5,7.5,4.9,7.8C3.9,7.2,3.3,6.9,3.3,6.9c-0.5,0-2,1.7-1.3,2c0.1,0.1,0.7,0.4,1.7,1c-0.1,0.3-0.3,0.6-0.4,0.9
			c-1-0.3-1.7-0.5-1.7-0.4C1,10.4-0.1,12.5,0.7,12.6z M13.7,15.4H8c0.1-1.6,0.6-3,1.5-4.2L13.7,15.4z M21.9,11.2
			c0.9,1.2,1.4,2.6,1.5,4.2h-5.7L21.9,11.2z M17.7,17h5.6c-0.2,1.4-0.9,2.7-1.8,3.8L17.7,17z M13.7,17L10,20.8
			c-0.9-1-1.6-2.3-1.8-3.8H13.7z M11.2,21.9l3.7-3.7v5.2C13.5,23.2,12.2,22.7,11.2,21.9z M16.5,23.4v-5.2l3.7,3.7
			C19.2,22.7,17.9,23.2,16.5,23.4z M20.8,10l-4.3,4.3V8.1C18.2,8.2,19.6,8.9,20.8,10z M14.9,8.1v6.1L10.6,10
			C11.8,8.9,13.3,8.2,14.9,8.1z"/>
	</g>
</g>
</svg>
