<svg xmlns="http://www.w3.org/2000/svg" xmlns:xlink="http://www.w3.org/1999/xlink" width="170" height="64" preserveAspectRatio="xMidYMid"  viewBox="0 0 170 64">
<style type="text/css">
	.st0{fill:#FFFFFF;}
</style>

<g class="currentLayer"><title>Layer 1</title>
	
	
<g id="svg_2" fill="#41e841" fill-opacity="1" class="">
		<path class="st0" d="M12.1,15.7H4.9v9.7H0V0.5h14.3c1.6,0,4.1,0.2,6,2.1c1.7,1.7,2,3.9,2,5.6c0,1.5-0.2,3.1-1.4,4.6    c-0.8,1.1-2,1.9-3.5,2.4l5.9,10.1h-5.5L12.1,15.7z M13.9,10.9c0.9,0,1.8,0,2.5-0.8c0.6-0.6,0.8-1.4,0.8-2.2c0-1.2-0.5-1.9-1-2.2    c-0.7-0.5-1.7-0.5-2.6-0.5H4.9v5.6H13.9z" id="svg_3" fill="#41e841" fill-opacity="1"/>
		<path class="st0" d="M24.7,13c0-7.5,5.5-13,12.9-13C45,0,50.5,5.5,50.5,13c0,7.5-5.5,13-12.9,13C30.2,26,24.7,20.5,24.7,13z     M29.8,13c0,4.9,3.4,8.2,7.8,8.2c4.5,0,7.8-3.4,7.8-8.2c0-4.8-3.3-8.2-7.8-8.2C33.2,4.8,29.8,8.2,29.8,13z" id="svg_4" fill="#41e841" fill-opacity="1"/>
		<path class="st0" d="M68.6,0.5c2.3,0,5.3,0.2,7.1,2.1c1.4,1.4,1.6,3,1.6,4.1c0,3-1.5,4.2-2.1,4.7c0.9,0.4,1.9,1,2.8,2.4    c0.7,1.3,0.9,2.4,0.9,3.8c0,2.7-1,4.4-2.1,5.4c-2,2.1-4.5,2.3-6.7,2.3H54.9V0.5H68.6z M69.1,9.9c0.8,0,1.8-0.1,2.3-0.5    c0.4-0.2,0.9-0.8,0.9-2.1c0-0.5,0-1.3-0.9-1.8c-0.6-0.3-1.4-0.4-2-0.4h-0.4h-9.2v4.8H69.1z M69.6,20.8c1.1,0,2.4,0,3.2-0.7    c0.7-0.6,1.1-1.7,1.1-2.6c0-1.5-0.7-2.1-0.9-2.3c-0.7-0.6-2-0.8-3-0.8H59.9v6.4H69.6z" id="svg_5" fill="#41e841" fill-opacity="1"/>
		<path class="st0" d="M82.2,13c0-7.5,5.5-13,12.9-13c7.4,0,12.9,5.5,12.9,13c0,7.5-5.5,13-12.9,13C87.7,26,82.2,20.5,82.2,13z     M87.2,13c0,4.9,3.4,8.2,7.8,8.2c4.5,0,7.8-3.4,7.8-8.2c0-4.8-3.3-8.2-7.8-8.2C90.6,4.8,87.2,8.2,87.2,13z" id="svg_6" fill="#41e841" fill-opacity="1"/>
		<path class="st0" d="M37.8,0v4.8c4.4,0.1,7.7,3.4,7.7,8.2c0,4.8-3.3,8.1-7.7,8.2V26c7.3-0.1,12.8-5.5,12.8-13S45.1,0.1,37.8,0z" id="svg_7" fill="#41e841" fill-opacity="1"/>
		<path class="st0" d="M95.2,0v4.8c4.4,0.1,7.7,3.4,7.7,8.2c0,4.8-3.3,8.1-7.7,8.2V26c7.3-0.1,12.8-5.5,12.8-13S102.5,0.1,95.2,0z" id="svg_8" fill="#41e841" fill-opacity="1"/>
	</g><g id="svg_9" fill="#41e841" fill-opacity="1" class="">
		<path class="st0" d="M24.569550079107273,47.201265221834184 c-1.1,2.2 -2.8,3.9 -4.5,5 c-2.1,1.4 -4.2,1.9 -6.9,1.9 c-3.4,0 -6.8,-0.8 -9.4,-3.6 c-2,-2 -3.6,-5.3 -3.6,-9.2 c0,-3.4 1.2,-7 3.6,-9.5 C5.569550079107287,30.101265221834183 8.469550079107279,28.101265221834183 13.369550079107285,28.101265221834183 c2.7,0 5,0.6000000000000003 6.7,1.7000000000000002 c1.5,0.9 3.1,2.3 4.3,4.1 l-4.2,3 c-0.7000000000000003,-1.1 -1.7000000000000002,-2.3 -2.8,-3 c-1,-0.6000000000000003 -2.3,-1 -4.1,-1 c-2.4,0 -4.1,0.7000000000000003 -5.6,2.2 c-1.2,1.2 -2.3,3.1 -2.3,6.2 c0,2.6 1,4.7 2.4,6.1 c1.3,1.3 3,2 5.4,2 c1.9,0 3.3,-0.5 4.7,-1.5 c1.1,-0.8 2.2,-1.9 2.9,-3.6 L24.569550079107273,47.201265221834184 z" id="svg_10" fill="#41e841" fill-opacity="1"/>
		<path class="st0" d="M28.76955007910729,28.601265221834183 h5 v20.1 h14.9 v4.7 h-19.9 V28.601265221834183 z" id="svg_11" fill="#41e841" fill-opacity="1"/>
		<path class="st0" d="M71.96955007910728,45.201265221834184 c0,2.4 -0.30000000000000016,4.8 -2.5,6.7 c-2.1,1.8 -5.4,2.2 -8.3,2.2 c-2.6,0 -6.1,-0.2 -8.4,-2.5 c-1.8,-1.9 -2.2,-4.4 -2.2,-6.4 V28.601265221834183 h5 v16.1 c0,1.3 0,2.7 1.3,3.7 c1.1,0.9 2.7,0.9 4.2,0.9 c1.9,0 3.5,-0.2 4.6,-1 c1.4,-1.1 1.4,-2.9 1.4,-4.1 V28.601265221834183 h4.9 V45.201265221834184 z" id="svg_12" fill="#41e841" fill-opacity="1"/>
		<path class="st0" d="M91.56955007910727,28.601265221834183 c2.3,0 5.3,0.2 7.1,2.1 c1.4,1.4 1.6,3 1.6,4.1 c0,3 -1.5,4.2 -2.1,4.7 c0.9,0.4 1.9,1 2.8,2.4 c0.7000000000000003,1.3 0.9,2.4 0.9,3.8 c0,2.7 -1,4.4 -2.1,5.4 c-2,2.1 -4.5,2.3 -6.7,2.3 h-15.3 V28.601265221834183 H91.56955007910727 zM91.96955007910728,38.00126522183418 c0.8,0 1.8,-0.1 2.3,-0.5 c0.4,-0.2 0.9,-0.8 0.9,-2.1 c0,-0.5 0,-1.3 -0.9,-1.8 c-0.6000000000000003,-0.30000000000000016 -1.4,-0.4 -2,-0.4 h-0.4 h-9.2 v4.8 H91.96955007910728 zM92.56955007910727,48.90126522183418 c1.1,0 2.4,0 3.2,-0.7000000000000003 c0.7000000000000003,-0.6000000000000003 1.1,-1.7000000000000002 1.1,-2.6 c0,-1.5 -0.7000000000000003,-2.1 -0.9,-2.3 c-0.7000000000000003,-0.6000000000000003 -2,-0.8 -3,-0.8 h-10.1 v6.4 H92.56955007910727 z" id="svg_13" fill="#41e841" fill-opacity="1"/>
		<path class="st0" d="M107.1695500791073,28.601265221834183 h5 v25 h-5 V28.601265221834183 z" id="svg_14" fill="#41e841" fill-opacity="1"/>
		<path class="st0" d="M123.56955007910727,37.90126522183418 h9.1 v4.7 h-9.1 v10.8 h-4.9 V28.601265221834183 h20 v4.7 h-15.1 V37.90126522183418 z" id="svg_15" fill="#41e841" fill-opacity="1"/>
		<path class="st0" d="M67.06955007910727,44.201265221834184 c0,1.3 0,3 -1.4,4.1 c-1.1,0.8 -2.6,1 -4.5,1 V54.10126522183418 c0,0 0,0 0,0 c2.9,0 6.2,-0.4 8.3,-2.2 c2.2,-1.9 2.5,-4.3 2.5,-6.7 V28.601265221834183 h-4.9 V44.201265221834184 z" id="svg_16" fill="#41e841" fill-opacity="1"/>
		<path class="st0" d="M20.669550079107296,44.301265221834186 c-0.7000000000000003,1.6 -1.8,2.8 -2.9,3.6 c-1.4,1 -2.8,1.5 -4.7,1.5 c-0.1,0 -0.1,0 -0.2,0 V54.10126522183418 c0.1,0 0.2,0 0.4,0 c2.7,0 4.8,-0.5 6.9,-1.9 c1.7000000000000002,-1.1 3.3,-2.8 4.5,-5 L20.669550079107296,44.301265221834186 zM17.369550079107285,33.90126522183418 c1.1,0.7000000000000003 2.1,1.8 2.8,3 l4.2,-3 c-1.2,-1.7000000000000002 -2.8,-3.2 -4.3,-4.1 C18.369550079107285,28.701265221834184 16.069550079107273,28.101265221834183 13.369550079107285,28.101265221834183 c-0.1,0 -0.30000000000000016,0 -0.4,0 v4.8 c0.1,0 0.2,0 0.4,0 C15.069550079107273,32.90126522183418 16.369550079107285,33.301265221834186 17.369550079107285,33.90126522183418 z" id="svg_17" fill="#41e841" fill-opacity="1"/>
	</g></g></svg>