<?xml version="1.0" encoding="utf-8"?>
<!-- Generator: Adobe Illustrator 19.0.0, SVG Export Plug-In . SVG Version: 6.00 Build 0)  -->
<svg version="1.1" id="Layer_1" xmlns="http://www.w3.org/2000/svg" xmlns:xlink="http://www.w3.org/1999/xlink" x="0px" y="0px"
	 viewBox="0 0 194.7 71.8" style="enable-background:new 0 0 194.7 71.8;" xml:space="preserve">
<style type="text/css">
	.st0{fill:#D86862;}
	.st1{fill:#EB8B83;}
	.st2{fill:#03B8D4;}
	.st3{fill:#00A6B7;}
	.st4{fill:#ECA452;}
</style>
<g>
	<path class="st0" d="M19.6,22.1h-10v13.7H2.6v-35h20.1c2.3,0,5.8,0.3,8.5,3c2.4,2.4,2.8,5.6,2.8,7.9c0,2-0.3,4.3-2,6.4
		c-1.2,1.5-2.8,2.7-4.9,3.4l8.3,14.3h-7.8L19.6,22.1z M22.3,15.3c1.3,0,2.5-0.1,3.5-1.1c0.8-0.8,1.1-2,1.1-3.1
		c0-1.7-0.7-2.6-1.5-3.1c-1-0.7-2.4-0.7-3.7-0.7H9.6v7.9H22.3z"/>
	<path class="st1" d="M37.5,18.3C37.5,7.7,45.2,0,55.6,0C66,0,73.7,7.7,73.7,18.3c0,10.6-7.8,18.3-18.2,18.3
		C45.2,36.6,37.5,28.9,37.5,18.3z M44.6,18.3c0,6.9,4.8,11.6,11,11.6c6.3,0,11-4.8,11-11.6c0-6.8-4.7-11.6-11-11.6
		C49.4,6.7,44.6,11.5,44.6,18.3z"/>
	<path class="st0" d="M99.2,0.7c3.2,0,7.4,0.3,10,3c1.9,1.9,2.2,4.2,2.2,5.8c0,4.2-2,5.9-2.9,6.6c1.3,0.5,2.6,1.4,3.9,3.4
		c1,1.8,1.3,3.4,1.3,5.3c0,3.8-1.5,6.1-3,7.7c-2.8,2.9-6.3,3.2-9.4,3.2H80v-35H99.2z M99.9,13.9c1.1,0,2.5-0.1,3.3-0.7
		c0.5-0.3,1.3-1.1,1.3-2.9c0-0.7-0.1-1.9-1.3-2.6c-0.8-0.4-2-0.6-2.8-0.6h-0.5H87v6.7H99.9z M100.6,29.3c1.5,0,3.4,0,4.5-1
		c1-0.8,1.5-2.4,1.5-3.7c0-2-1-3-1.3-3.2c-1-0.9-2.8-1.2-4.2-1.2H87v9.1H100.6z"/>
	<path class="st1" d="M118.3,18.3C118.3,7.7,126,0,136.4,0c10.4,0,18.2,7.7,18.2,18.3c0,10.6-7.8,18.3-18.2,18.3
		C126,36.6,118.3,28.9,118.3,18.3z M125.4,18.3c0,6.9,4.8,11.6,11,11.6c6.3,0,11-4.8,11-11.6c0-6.8-4.7-11.6-11-11.6
		C130.2,6.7,125.4,11.5,125.4,18.3z"/>
	<path class="st2" d="M34.2,62.1c-1.6,3.1-3.9,5.5-6.3,7.1c-2.9,1.9-5.9,2.6-9.6,2.6c-4.8,0-9.5-1.2-13.3-5.1c-2.8-2.8-5-7.4-5-13
		c0-4.8,1.7-9.9,5.1-13.4c2.3-2.3,6.4-5.1,13.3-5.1c3.8,0,7,0.9,9.4,2.4c2.2,1.3,4.4,3.3,6.1,5.7L28,47.4c-1-1.6-2.4-3.2-4-4.2
		c-1.4-0.8-3.3-1.4-5.7-1.4c-3.4,0-5.8,0.9-7.9,3c-1.7,1.7-3.3,4.4-3.3,8.7c0,3.7,1.5,6.7,3.4,8.6C12.2,64,14.7,65,18,65
		c2.6,0,4.7-0.7,6.6-2.1c1.5-1.1,3-2.7,4-5L34.2,62.1z"/>
	<path class="st3" d="M40.1,35.9h7v28.4h20.9v6.7h-28V35.9z"/>
	<path class="st2" d="M100.9,59.2c0,3.4-0.4,6.8-3.5,9.4c-3,2.6-7.7,3.1-11.7,3.1c-3.7,0-8.6-0.3-11.8-3.5c-2.6-2.6-3-6.1-3-9.1
		V35.9h7v22.6c0,1.9,0,3.8,1.8,5.2c1.5,1.3,3.8,1.3,5.9,1.3c2.6,0,4.9-0.3,6.4-1.4c1.9-1.6,2-4,2-5.8V35.9h6.9V59.2z"/>
	<path class="st3" d="M128.4,35.9c3.2,0,7.4,0.3,10,3c1.9,1.9,2.2,4.2,2.2,5.8c0,4.2-2,5.9-2.9,6.6c1.3,0.5,2.6,1.4,3.9,3.4
		c1,1.8,1.3,3.4,1.3,5.3c0,3.8-1.5,6.1-3,7.7c-2.8,2.9-6.3,3.2-9.4,3.2h-21.5v-35H128.4z M129.1,49c1.1,0,2.5-0.1,3.3-0.7
		c0.5-0.3,1.3-1.1,1.3-2.9c0-0.7-0.1-1.8-1.3-2.6c-0.8-0.4-2-0.6-2.8-0.6h-0.5h-12.9V49H129.1z M129.9,64.5c1.5,0,3.4,0,4.5-1
		c1-0.8,1.5-2.4,1.5-3.7c0-2-1-3-1.3-3.2c-1-0.9-2.8-1.2-4.2-1.2h-14.2v9.1H129.9z"/>
	<path class="st4" d="M150.4,35.9h7V71h-7V35.9z"/>
	<path class="st4" d="M173.5,49h12.8v6.7h-12.8v15.3h-6.9v-35h28.2v6.7h-21.2V49z"/>
	<path class="st0" d="M55.8,0v6.7c6.2,0.1,10.8,4.8,10.8,11.6c0,6.7-4.6,11.5-10.8,11.6v6.7c10.3-0.1,18-7.8,18-18.3
		S66.1,0.1,55.8,0z"/>
	<path class="st0" d="M136.6,0v6.7c6.2,0.1,10.8,4.8,10.8,11.6c0,6.7-4.6,11.5-10.8,11.6v6.7c10.3-0.1,18-7.8,18-18.3
		S146.9,0.1,136.6,0z"/>
	<path class="st3" d="M94,57.8c0,1.8-0.1,4.2-2,5.8c-1.5,1.1-3.7,1.4-6.3,1.4v6.7c0,0,0,0,0,0c4,0,8.7-0.5,11.7-3.1
		c3.1-2.6,3.5-6,3.5-9.4V35.9H94V57.8z"/>
	<path class="st3" d="M28.7,57.9c-1,2.3-2.5,3.9-4,5c-1.9,1.4-4,2.1-6.6,2.1c-0.1,0-0.2,0-0.3,0v6.7c0.2,0,0.3,0,0.5,0
		c3.8,0,6.7-0.7,9.6-2.6c2.4-1.6,4.7-4,6.3-7.1L28.7,57.9z M24.1,43.3c1.6,1,3,2.6,4,4.2l5.9-4.2c-1.7-2.4-3.9-4.5-6.1-5.7
		c-2.4-1.5-5.7-2.4-9.4-2.4c-0.2,0-0.4,0-0.6,0v6.7c0.2,0,0.3,0,0.5,0C20.8,41.9,22.7,42.5,24.1,43.3z"/>
</g>
</svg>
