<?xml version="1.0" encoding="utf-8"?>
<!-- Generator: Adobe Illustrator 19.0.0, SVG Export Plug-In . SVG Version: 6.00 Build 0)  -->
<svg version="1.1" id="Layer_1" xmlns="http://www.w3.org/2000/svg" xmlns:xlink="http://www.w3.org/1999/xlink" x="0px" y="0px" width="52" height="78"
	 viewBox="0 0 56.9 85.4" style="enable-background:new 0 0 56.9 85.4;" xml:space="preserve">
<style type="text/css">
	.st0{fill:#ECA452;}
	.st1{fill:#FFFFFF;}
	.st2{fill:#00A6B7;}
</style>
<g>
	<path class="st0" d="M55.1,38.4l-20.2,43c-1.2,2.4-3.7,3.9-6.4,3.9s-5.2-1.5-6.3-3.9l-20.3-43C0.4,35.4,0,31.9,0,28.5
		C0,12.7,12.7,0,28.5,0s28.5,12.7,28.5,28.5C56.9,31.9,56.6,35.4,55.1,38.4z M28.5,14.2c-7.8,0-14.2,6.4-14.2,14.2
		s6.4,14.2,14.2,14.2s14.2-6.4,14.2-14.2S36.3,14.2,28.5,14.2z"/>
	<circle class="st1" cx="28.5" cy="28" r="20"/>
	<g>
		<g id="XMLID_80_">
			<path id="XMLID_81_" class="st2" d="M14.9,25.2c0.1,0,0.7,0.2,1.7,0.4c-0.1,0.4-0.1,0.8-0.2,1.2c-1,0-1.6,0-1.6,0.1
				c-0.4,0.2-0.8,2.2-0.1,2.2c0.1,0,0.8,0,1.7,0c0,0.3,0.1,0.5,0.1,0.8c-0.9,0.3-1.5,0.4-1.6,0.5c-0.3,0.3-0.2,2.4,0.4,2.1
				c0.1,0,0.7-0.2,1.7-0.5c0.1,0.3,0.2,0.6,0.3,0.9c-0.8,0.5-1.4,0.8-1.4,0.8c-0.3,0.4,0.4,2.3,1,1.9c0.1-0.1,0.7-0.4,1.5-0.9
				c0.2,0.3,0.5,0.7,0.8,1C18.4,36.5,18,36.9,18,37c-0.1,0.4,1,2.1,1.5,1.6c0.1-0.1,0.5-0.6,1.2-1.2c0.2,0.2,0.4,0.3,0.6,0.5
				c-0.5,0.8-0.8,1.4-0.8,1.4c0,0.4,1.5,1.8,1.8,1.2c0.1-0.1,0.4-0.7,0.9-1.5c0.3,0.1,0.6,0.3,0.9,0.4c-0.3,0.9-0.4,1.5-0.4,1.6
				c0.1,0.4,1.9,1.4,2.1,0.7c0-0.1,0.2-0.7,0.4-1.7c0.4,0.1,0.8,0.1,1.2,0.2c0,1,0,1.6,0.1,1.6c0.2,0.4,2.2,0.8,2.2,0.1
				c0-0.1,0-0.8,0-1.7c0.3,0,0.6-0.1,0.9-0.1c0.2,0.8,0.3,1.3,0.4,1.4c0.3,0.8,2.1,0.3,2-0.3c0-0.1-0.2-0.7-0.4-1.6
				c0.4-0.1,0.7-0.3,1-0.4c0.4,0.7,0.6,1.1,0.7,1.2c0.5,0.7,2.1-0.3,1.8-0.8c0-0.1-0.3-0.6-0.8-1.4c0.4-0.3,0.8-0.6,1.1-0.9
				c0.6,0.6,0.9,0.9,1,1c0.7,0.6,2-0.8,1.5-1.3c-0.1-0.1-0.5-0.5-1.1-1.2c0.2-0.2,0.4-0.5,0.6-0.8c0.7,0.4,1.1,0.7,1.2,0.7
				c0.8,0.4,1.7-1.3,1.2-1.6c-0.1,0-0.6-0.4-1.4-0.9c0.2-0.3,0.3-0.7,0.4-1c0.8,0.2,1.3,0.3,1.4,0.4c0.9,0.2,1.3-1.7,0.7-1.8
				c-0.1,0-0.6-0.2-1.6-0.5c0.1-0.5,0.2-0.9,0.2-1.4c0.8,0,1.3,0,1.4,0c0.9-0.1,0.8-2,0.2-2c-0.1,0-0.7,0-1.6,0
				c0-0.3-0.1-0.6-0.1-0.9c0.8-0.2,1.3-0.3,1.4-0.4c0.8-0.3,0.3-2.1-0.3-2c-0.1,0-0.7,0.2-1.6,0.4c-0.1-0.4-0.3-0.7-0.4-1
				c0.7-0.4,1.1-0.6,1.2-0.7c0.7-0.5-0.3-2.1-0.8-1.8c-0.1,0-0.6,0.3-1.4,0.8c-0.3-0.4-0.6-0.8-0.9-1.1c0.6-0.6,0.9-0.9,1-1
				c0.6-0.7-0.8-2-1.3-1.5c-0.1,0.1-0.5,0.5-1.2,1.1c-0.2-0.2-0.5-0.4-0.8-0.6c0.4-0.7,0.7-1.1,0.7-1.2c0.4-0.8-1.3-1.7-1.6-1.2
				c0,0.1-0.4,0.6-0.8,1.4c-0.3-0.2-0.7-0.3-1-0.4c0.2-0.8,0.3-1.3,0.4-1.4c0.2-0.9-1.7-1.3-1.8-0.7c0,0.1-0.2,0.6-0.5,1.6
				c-0.5-0.1-0.9-0.2-1.4-0.2c0-0.8,0-1.3,0-1.4c-0.1-0.9-2-0.8-2-0.2c0,0.1,0,0.7,0,1.6c-0.3,0-0.5,0.1-0.8,0.1
				c-0.3-0.9-0.4-1.5-0.5-1.6c-0.3-0.3-2.4-0.2-2.1,0.4c0,0.1,0.2,0.7,0.5,1.7c-0.3,0.1-0.6,0.2-0.9,0.3c-0.5-0.8-0.8-1.4-0.8-1.4
				c-0.4-0.3-2.3,0.4-1.9,1c0.1,0.1,0.4,0.7,0.9,1.5c-0.3,0.2-0.7,0.5-1,0.8c-0.7-0.7-1.1-1.1-1.2-1.1c-0.4-0.1-2.1,1-1.6,1.5
				c0.1,0.1,0.6,0.5,1.2,1.2c-0.2,0.2-0.3,0.4-0.5,0.6c-0.8-0.5-1.4-0.8-1.4-0.8c-0.4,0-1.8,1.5-1.2,1.8c0.1,0.1,0.7,0.4,1.5,0.9
				c-0.1,0.3-0.3,0.6-0.4,0.8c-0.9-0.3-1.5-0.4-1.6-0.4C15.1,23.2,14.2,25.1,14.9,25.2z M26.7,27.7h-5.1c0.1-1.4,0.5-2.7,1.3-3.8
				L26.7,27.7z M34.1,23.9c0.8,1.1,1.3,2.4,1.3,3.8h-5.1L34.1,23.9z M30.3,29.2h5c-0.2,1.3-0.8,2.5-1.6,3.4L30.3,29.2z M26.7,29.2
				l-3.4,3.4c-0.8-0.9-1.4-2.1-1.6-3.4H26.7z M24.4,33.6l3.4-3.4v4.7C26.5,34.8,25.3,34.3,24.4,33.6z M29.2,34.9v-4.7l3.4,3.4
				C31.6,34.3,30.5,34.8,29.2,34.9z M33.1,22.8l-3.8,3.8v-5.6C30.7,21.2,32,21.9,33.1,22.8z M27.7,21.1v5.6l-3.8-3.8
				C24.9,21.9,26.3,21.2,27.7,21.1z"/>
		</g>
	</g>
</g>
</svg>
