<?xml version="1.0" encoding="utf-8"?>
<!-- Generator: Adobe Illustrator 19.0.0, SVG Export Plug-In . SVG Version: 6.00 Build 0)  -->
<svg version="1.1" id="Layer_1" xmlns="http://www.w3.org/2000/svg" xmlns:xlink="http://www.w3.org/1999/xlink" x="0px" y="0px"
	 viewBox="0 0 71.5 51.1" style="enable-background:new 0 0 71.5 51.1;" xml:space="preserve">
<style type="text/css">
	.st0{fill:#ECA452;}
</style>
<g>
	<g id="XMLID_38_">
		<path id="XMLID_41_" class="st0" d="M0.3,46.7c5.5,0,9.9-0.9,13.2-2.8c4-2.4,6.5-6.3,7.5-11.6c-0.3-1.9-0.5-3.4-0.5-4.6
			c0-1.2-0.3-1.9-1-2.1l-2.1,1.5c-1.6,0.5-3.1,0.8-4.4,0.8c-3.3,0-6.3-1.1-8.9-3.3C1.3,22.3,0,19.4,0,15.9c0-4.6,1.3-8.4,3.8-11.4
			C6.3,1.5,10.1,0,15.1,0c4.7,0,8.5,1.9,11.6,5.5c3,3.7,4.6,8.6,4.6,14.6c0,20.6-10.3,31-31,31V46.7z"/>
		<path id="XMLID_39_" class="st0" d="M40.5,46.7c5.5,0,9.9-0.9,13.2-2.8c4-2.4,6.5-6.3,7.5-11.6c-0.3-1.9-0.5-3.4-0.5-4.6
			c0-1.2-0.3-1.9-1-2.1l-2.1,1.5c-1.6,0.5-3.1,0.8-4.4,0.8c-3.3,0-6.3-1.1-8.9-3.3c-2.6-2.2-3.9-5.1-3.9-8.7c0-4.6,1.3-8.4,3.8-11.4
			c2.5-3,6.3-4.5,11.3-4.5c4.7,0,8.5,1.9,11.6,5.5c3,3.7,4.6,8.6,4.6,14.6c0,20.6-10.3,31-31,31V46.7z"/>
	</g>
</g>
</svg>
