<?xml version="1.0" encoding="utf-8"?>
<!-- Generator: Adobe Illustrator 19.0.0, SVG Export Plug-In . SVG Version: 6.00 Build 0)  -->
<svg version="1.1" id="Layer_1" xmlns="http://www.w3.org/2000/svg" xmlns:xlink="http://www.w3.org/1999/xlink" x="0px" y="0px"
	 viewBox="0 0 370.5 532" style="enable-background:new 0 0 370.5 532;" xml:space="preserve">
<style type="text/css">
	.st0{fill:#03B8D4;}
	.st1{fill:#00A6B7;}
	.st2{fill:#EB8B83;}
	.st3{fill:#D86862;}
	.st4{fill:#EDC47B;}
	.st5{fill:#ECA452;}
	.st6{fill:#FAFAFA;}
	.st7{fill:#FFFFFF;}
	.st8{fill:#D6DFE4;}
</style>
<path class="st0" d="M35.9,362.1l-27.6-0.2c0.3-39.1,9.8-72.6,27.2-96.7c20.1-27.7,50.4-42.4,87.4-42.4v27.6
	C45.2,250.5,36.2,328.6,35.9,362.1z"/>
<path class="st1" d="M35.9,362.1c0.3-33.6,9.3-111.6,87-111.6v-15c-32.1,1.2-58.4,14.7-76.2,39.1c-15.9,21.9-24.5,52.1-25.2,87.4
	L35.9,362.1z"/>
<path class="st0" d="M9.6,400l14.4-30.6c-8.4-3.9-18.4-0.2-22.3,8.2C-2.3,386,1.2,395.9,9.6,400z"/>
<path class="st0" d="M35,400l-14.4-30.6c8.4-3.9,18.4-0.2,22.3,8.2C46.9,386,43.3,395.9,35,400z"/>
<rect x="2.9" y="360.3" class="st1" width="37.9" height="14"/>
<path class="st0" d="M334.6,362.1l27.6-0.2c-0.3-39.1-9.8-72.6-27.2-96.7c-20.1-27.7-50.4-42.4-87.4-42.4v27.6
	C325.2,250.5,334.3,328.6,334.6,362.1z"/>
<path class="st1" d="M334.6,362.1c-0.3-33.6-9.3-111.6-87-111.6v-15c32.1,1.2,58.4,14.7,76.2,39.1c15.9,21.9,24.5,52.1,25.2,87.4
	L334.6,362.1z"/>
<path class="st0" d="M360.9,400l-14.4-30.6c8.4-3.9,18.4-0.2,22.3,8.2C372.8,386,369.2,395.9,360.9,400z"/>
<path class="st0" d="M335.5,400l14.4-30.6c-8.4-3.9-18.4-0.2-22.3,8.2C323.5,386,327.1,395.9,335.5,400z"/>
<rect x="329.6" y="360.3" class="st1" width="37.9" height="14"/>
<circle class="st2" cx="106.2" cy="87" r="32.4"/>
<circle class="st3" cx="264.2" cy="87" r="32.4"/>
<rect x="91.3" y="218" class="st4" width="187.9" height="187.9"/>
<rect x="185.2" y="218" class="st5" width="94" height="187.9"/>
<circle class="st4" cx="232.2" cy="272.2" r="32.4"/>
<path class="st5" d="M253,272.2c0,11.5-9.3,20.8-20.8,20.8c-11.5,0-20.8-9.3-20.8-20.8c0-11.5,9.3-20.8,20.8-20.8
	C243.7,251.5,253,260.8,253,272.2z"/>
<circle class="st4" cx="232.2" cy="355.1" r="32.4"/>
<rect x="138.2" y="186.4" class="st2" width="94" height="31.3"/>
<rect x="185.2" y="186.4" class="st3" width="47" height="31.3"/>
<path class="st4" d="M279.1,92.7C278.5,41.4,236.7,0,185.2,0C133.8,0,92,41.4,91.3,92.7h-0.1v95.1h187.9L279.1,92.7L279.1,92.7z"/>
<path class="st5" d="M185.2,0v187.8h94V92.7h-0.1C278.5,41.4,236.7,0,185.2,0z"/>
<path class="st0" d="M47.7,531.8h64.8c-0.2-17.8-14.6-32.1-32.4-32.1C62.3,499.7,47.9,514,47.7,531.8z"/>
<path class="st1" d="M257.6,531.8h64.8c-0.1-17.8-14.6-32.1-32.4-32.1C272.2,499.7,257.8,514,257.6,531.8z"/>
<path class="st2" d="M171.3,80.4c0,17.9-14.5,32.4-32.4,32.4c-17.9,0-32.4-14.5-32.4-32.4c0-17.9,14.5-32.4,32.4-32.4
	C156.8,48,171.3,62.5,171.3,80.4z"/>
<path class="st0" d="M264.6,80.4c0,17.9-14.5,32.4-32.4,32.4c-17.9,0-32.4-14.5-32.4-32.4c0-17.9,14.5-32.4,32.4-32.4
	C250.1,48,264.6,62.5,264.6,80.4z"/>
<path class="st3" d="M139.2,48v64.8c17.8-0.1,32.1-14.6,32.1-32.4C171.3,62.6,156.9,48.1,139.2,48z"/>
<path class="st1" d="M232.7,48v64.8c17.8-0.1,32.1-14.6,32.1-32.4C264.8,62.6,250.5,48.1,232.7,48z"/>
<path class="st0" d="M164.1,80.4c0,13.9-11.3,25.2-25.2,25.2c-13.9,0-25.2-11.3-25.2-25.2c0-13.9,11.3-25.2,25.2-25.2
	C152.8,55.2,164.1,66.4,164.1,80.4z"/>
<path class="st3" d="M257.4,80.4c0,13.9-11.3,25.2-25.2,25.2c-13.9,0-25.2-11.3-25.2-25.2c0-13.9,11.3-25.2,25.2-25.2
	C246.2,55.2,257.4,66.4,257.4,80.4z"/>
<circle class="st6" cx="138.9" cy="80.4" r="13.8"/>
<circle class="st6" cx="232.2" cy="80.4" r="13.8"/>
<path class="st5" d="M171.3,272.2c0-17.9-14.5-32.4-32.4-32.4c-17.9,0-32.4,14.5-32.4,32.4c0,0.6,0,1.2,0,1.7h0v82.9h0
	c0.9,17.1,15,30.7,32.3,30.7c17.3,0,31.4-13.6,32.3-30.7h0V274h0C171.3,273.4,171.3,272.8,171.3,272.2z"/>
<rect x="106.6" y="272.5" class="st1" width="64.6" height="6.1"/>
<rect x="106.6" y="285.2" class="st1" width="64.6" height="6.1"/>
<rect x="106.6" y="297.9" class="st1" width="64.6" height="6.1"/>
<rect x="106.6" y="310.6" class="st1" width="64.6" height="6.1"/>
<rect x="106.6" y="323.4" class="st1" width="64.6" height="6.1"/>
<rect x="106.6" y="336.1" class="st1" width="64.6" height="6.1"/>
<rect x="106.6" y="348.8" class="st1" width="64.6" height="6.1"/>
<path class="st7" d="M244.7,355.1c0,6.9-5.6,12.5-12.5,12.5c-6.9,0-12.5-5.6-12.5-12.5c0-6.9,5.6-12.5,12.5-12.5
	C239.1,342.6,244.7,348.2,244.7,355.1z"/>
<path class="st3" d="M239.2,355.1c0,3.8-3.1,7-7,7s-7-3.1-7-7c0-3.9,3.1-7,7-7S239.2,351.3,239.2,355.1z"/>
<path class="st2" d="M294.5,532l-14.7-126h-72.5h-7.1h-29.5h-9.5H91.2L76.5,532h94.3v-95.6c1.3-7,7.5-12.3,14.8-12.3
	c7.1,0,13,4.9,14.6,11.5V532H294.5z"/>
<path class="st3" d="M185.6,406v18.1l0,0c7.1,0,13,4.9,14.6,11.5V532h94.3l-14.7-126H185.6z"/>
<path class="st0" d="M185.2,173.1c-25.2,0-47.2-13-53.4-31.7c-2.3-7,1.5-14.5,8.4-16.8c6.9-2.3,14.5,1.5,16.8,8.4
	c2.2,6.7,13.4,13.5,28.2,13.5c14.9,0,26-6.9,28.2-13.5c2.3-7,9.8-10.7,16.8-8.4c6.9,2.3,10.7,9.8,8.4,16.8
	C232.4,160.1,210.5,173.1,185.2,173.1z"/>
<path class="st1" d="M185.2,173.1c25.2,0,47.2-13,53.4-31.7c2.3-7-1.5-14.5-8.4-16.8c-7-2.3-14.5,1.5-16.8,8.4
	c-2.2,6.7-13.4,13.5-28.2,13.5V173.1z"/>
<path class="st6" d="M185.2,165.3c-21.9,0-40.8-10.8-46-26.3c-0.9-2.8,0.6-5.9,3.4-6.9c0.6-0.2,1.1-0.3,1.7-0.3
	c2.3,0,4.4,1.5,5.2,3.7c3.6,10.9,18.6,18.9,35.7,18.9c17,0,32-7.9,35.7-18.9c0.7-2.2,2.8-3.7,5.2-3.7c0.6,0,1.2,0.1,1.7,0.3
	c1.4,0.5,2.5,1.4,3.1,2.7c0.6,1.3,0.8,2.8,0.3,4.1C226.1,154.5,207.1,165.3,185.2,165.3z"/>
<path class="st8" d="M185.2,154.4v10.9c21.9,0,40.8-10.8,46-26.3c0.5-1.4,0.4-2.8-0.3-4.1c-0.7-1.3-1.8-2.3-3.1-2.7
	c-0.6-0.2-1.1-0.3-1.7-0.3c-2.3,0-4.4,1.5-5.2,3.7C217.3,146.5,202.3,154.4,185.2,154.4z"/>
</svg>
